<svg version="1.1" viewBox="0.0 0.0 530.3595800524935 697.5616797900262" fill="none" stroke="none" stroke-linecap="square" stroke-miterlimit="10" xmlns:xlink="http://www.w3.org/1999/xlink" xmlns="http://www.w3.org/2000/svg"><clipPath id="p.0"><path d="m0 0l530.35956 0l0 697.5617l-530.35956 0l0 -697.5617z" clip-rule="nonzero"/></clipPath><g clip-path="url(#p.0)"><path fill="#000000" fill-opacity="0.0" d="m0 0l530.35956 0l0 697.5617l-530.35956 0z" fill-rule="evenodd"/><path fill="#000000" fill-opacity="0.0" d="m237.23785 13.633969l0 0c0 -3.1108313 2.5218353 -5.632659 5.63266 -5.632659l22.529968 0l0 0c1.493866 0 2.9265442 0.5934391 3.9828796 1.6497679c1.0563354 1.0563288 1.6497803 2.4890175 1.6497803 3.982891l0 47.72681c0 3.1108322 -2.52182 5.63266 -5.63266 5.63266l-22.529968 0c-3.1108246 0 -5.63266 -2.5218277 -5.63266 -5.63266z" fill-rule="evenodd"/><path stroke="#0000ff" stroke-width="2.0" stroke-linejoin="round" stroke-linecap="butt" d="m237.23785 13.633969l0 0c0 -3.1108313 2.5218353 -5.632659 5.63266 -5.632659l22.529968 0l0 0c1.493866 0 2.9265442 0.5934391 3.9828796 1.6497679c1.0563354 1.0563288 1.6497803 2.4890175 1.6497803 3.982891l0 47.72681c0 3.1108322 -2.52182 5.63266 -5.63266 5.63266l-22.529968 0c-3.1108246 0 -5.63266 -2.5218277 -5.63266 -5.63266z" fill-rule="evenodd"/><path fill="#000000" fill-opacity="0.0" d="m254.1355 66.99344l0 62.960632" fill-rule="evenodd"/><path stroke="#00a891" stroke-width="2.0" stroke-linejoin="round" stroke-linecap="butt" d="m254.1355 66.99344l0 62.960632" fill-rule="evenodd"/><path fill="#000000" fill-opacity="0.0" d="m254.14433 129.95824l-55.842514 0" fill-rule="evenodd"/><path stroke="#00a891" stroke-width="2.0" stroke-linejoin="round" stroke-linecap="butt" d="m254.14433 129.95824l-55.842514 0" fill-rule="evenodd"/><path fill="#000000" fill-opacity="0.0" d="m60.8079 129.96802l0 0c0 -11.18486 8.651131 -20.251976 19.322838 -20.251976l0 0c5.124733 0 10.039566 2.1336823 13.663307 5.9316635c3.6237335 3.7979813 5.659523 8.94915 5.659523 14.3203125l0 0c0 11.184845 -8.651123 20.251968 -19.32283 20.251968l0 0c-10.671707 0 -19.322838 -9.067123 -19.322838 -20.251968z" fill-rule="evenodd"/><path stroke="#00a891" stroke-width="2.0" stroke-linejoin="round" stroke-linecap="butt" d="m60.8079 129.96802l0 0c0 -11.18486 8.651131 -20.251976 19.322838 -20.251976l0 0c5.124733 0 10.039566 2.1336823 13.663307 5.9316635c3.6237335 3.7979813 5.659523 8.94915 5.659523 14.3203125l0 0c0 11.184845 -8.651123 20.251968 -19.32283 20.251968l0 0c-10.671707 0 -19.322838 -9.067123 -19.322838 -20.251968z" fill-rule="evenodd"/><path fill="#000000" fill-opacity="0.0" d="m198.30685 129.95824l-98.645676 0" fill-rule="evenodd"/><path stroke="#00a891" stroke-width="2.0" stroke-linejoin="round" stroke-linecap="butt" d="m198.30685 129.95824l-98.645676 0" fill-rule="evenodd"/><path fill="#000000" fill-opacity="0.0" d="m160.05547 129.96423l0 -42.173225" fill-rule="evenodd"/><path stroke="#00a891" stroke-width="2.0" stroke-linejoin="round" stroke-linecap="butt" d="m160.05547 129.96423l0 -42.173225" fill-rule="evenodd"/><path fill="#000000" fill-opacity="0.0" d="m160.05547 87.80098l-28.18898 0" fill-rule="evenodd"/><path stroke="#00a891" stroke-width="2.0" stroke-linejoin="round" stroke-linecap="butt" d="m160.05547 87.80098l-28.18898 0" fill-rule="evenodd"/><path fill="#000000" fill-opacity="0.0" d="m93.22905 87.81075l0 0c0 -11.184853 8.651131 -20.251968 19.322838 -20.251968l0 0c5.124733 0 10.039574 2.1336823 13.663307 5.9316635c3.6237335 3.7979813 5.6595306 8.94915 5.6595306 14.320305l0 0c0 11.184853 -8.651131 20.251968 -19.322838 20.251968l0 0c-10.671707 0 -19.322838 -9.067116 -19.322838 -20.251968z" fill-rule="evenodd"/><path stroke="#00a891" stroke-width="2.0" stroke-linejoin="round" stroke-linecap="butt" d="m93.22905 87.81075l0 0c0 -11.184853 8.651131 -20.251968 19.322838 -20.251968l0 0c5.124733 0 10.039574 2.1336823 13.663307 5.9316635c3.6237335 3.7979813 5.6595306 8.94915 5.6595306 14.320305l0 0c0 11.184853 -8.651131 20.251968 -19.322838 20.251968l0 0c-10.671707 0 -19.322838 -9.067116 -19.322838 -20.251968z" fill-rule="evenodd"/><path fill="#000000" fill-opacity="0.0" d="m254.14433 129.95824l0 53.984253" fill-rule="evenodd"/><path stroke="#00a891" stroke-width="2.0" stroke-linejoin="round" stroke-linecap="butt" d="m254.14433 129.95824l0 53.984253" fill-rule="evenodd"/><path fill="#000000" fill-opacity="0.0" d="m234.82214 204.1974l0 0c0 -11.184845 8.651123 -20.251968 19.32283 -20.251968l0 0c5.1247406 0 10.039566 2.1336823 13.663315 5.931671c3.6237183 3.7979736 5.6595154 8.949142 5.6595154 14.320297l0 0c0 11.18486 -8.651123 20.251968 -19.32283 20.251968l0 0c-10.671707 0 -19.32283 -9.067108 -19.32283 -20.251968z" fill-rule="evenodd"/><path stroke="#00a891" stroke-width="2.0" stroke-linejoin="round" stroke-linecap="butt" d="m234.82214 204.1974l0 0c0 -11.184845 8.651123 -20.251968 19.32283 -20.251968l0 0c5.1247406 0 10.039566 2.1336823 13.663315 5.931671c3.6237183 3.7979736 5.6595154 8.949142 5.6595154 14.320297l0 0c0 11.18486 -8.651123 20.251968 -19.32283 20.251968l0 0c-10.671707 0 -19.32283 -9.067108 -19.32283 -20.251968z" fill-rule="evenodd"/><path fill="#000000" fill-opacity="0.0" d="m254.14433 129.95824l53.637802 0" fill-rule="evenodd"/><path stroke="#00a891" stroke-width="2.0" stroke-linejoin="round" stroke-linecap="butt" d="m254.14433 129.95824l53.637802 0" fill-rule="evenodd"/><path fill="#000000" fill-opacity="0.0" d="m307.80692 109.71604l38.64569 0l0 40.503944l-38.64569 0z" fill-rule="evenodd"/><path stroke="#00a891" stroke-width="2.0" stroke-linejoin="round" stroke-linecap="butt" d="m307.80692 109.71604l38.64569 0l0 40.503944l-38.64569 0z" fill-rule="evenodd"/><path fill="#000000" fill-opacity="0.0" d="m254.14433 224.42984l0 47.653534" fill-rule="evenodd"/><path stroke="#00a891" stroke-width="2.0" stroke-linejoin="round" stroke-linecap="butt" d="m254.14433 224.42984l0 47.653534" fill-rule="evenodd"/><path fill="#000000" fill-opacity="0.0" d="m254.14433 272.08536l-71.14961 0" fill-rule="evenodd"/><path stroke="#00a891" stroke-width="2.0" stroke-linejoin="round" stroke-linecap="butt" d="m254.14433 272.08536l-71.14961 0" fill-rule="evenodd"/><path fill="#000000" fill-opacity="0.0" d="m323.34406 272.08536l-71.14961 0" fill-rule="evenodd"/><path stroke="#00a891" stroke-width="2.0" stroke-linejoin="round" stroke-linecap="butt" d="m323.34406 272.08536l-71.14961 0" fill-rule="evenodd"/><path fill="#000000" fill-opacity="0.0" d="m182.99103 302.5446l0 37.543304" fill-rule="evenodd"/><path stroke="#00a891" stroke-width="2.0" stroke-linejoin="round" stroke-linecap="butt" d="m182.99103 302.5446l0 37.543304" fill-rule="evenodd"/><path fill="#000000" fill-opacity="0.0" d="m323.34406 302.5446l0 37.543304" fill-rule="evenodd"/><path stroke="#00a891" stroke-width="2.0" stroke-linejoin="round" stroke-linecap="butt" d="m323.34406 302.5446l0 37.543304" fill-rule="evenodd"/><path fill="#000000" fill-opacity="0.0" d="m166.08456 345.71158l0 0c0 -3.1108398 2.52182 -5.63266 5.6326447 -5.63266l22.529968 0l0 0c1.493866 0 2.9265594 0.5934448 3.982895 1.6497803c1.0563202 1.0563354 1.649765 2.4890137 1.649765 3.9828796l0 47.726807c0 3.1108398 -2.5218353 5.63266 -5.63266 5.63266l-22.529968 0c-3.1108246 0 -5.6326447 -2.52182 -5.6326447 -5.63266z" fill-rule="evenodd"/><path stroke="#0000ff" stroke-width="2.0" stroke-linejoin="round" stroke-linecap="butt" d="m166.08456 345.71158l0 0c0 -3.1108398 2.52182 -5.63266 5.6326447 -5.63266l22.529968 0l0 0c1.493866 0 2.9265594 0.5934448 3.982895 1.6497803c1.0563202 1.0563354 1.649765 2.4890137 1.649765 3.9828796l0 47.726807c0 3.1108398 -2.5218353 5.63266 -5.63266 5.63266l-22.529968 0c-3.1108246 0 -5.6326447 -2.52182 -5.6326447 -5.63266z" fill-rule="evenodd"/><path fill="#000000" fill-opacity="0.0" d="m306.43756 345.71158l0 0c0 -3.1108398 2.5218506 -5.63266 5.63266 -5.63266l22.529968 0l0 0c1.493866 0 2.9265747 0.5934448 3.9828796 1.6497803c1.0563354 1.0563354 1.6497803 2.4890137 1.6497803 3.9828796l0 47.726807c0 3.1108398 -2.52182 5.63266 -5.63266 5.63266l-22.529968 0c-3.1108093 0 -5.63266 -2.52182 -5.63266 -5.63266z" fill-rule="evenodd"/><path stroke="#0000ff" stroke-width="2.0" stroke-linejoin="round" stroke-linecap="butt" d="m306.43756 345.71158l0 0c0 -3.1108398 2.5218506 -5.63266 5.63266 -5.63266l22.529968 0l0 0c1.493866 0 2.9265747 0.5934448 3.9828796 1.6497803c1.0563354 1.0563354 1.6497803 2.4890137 1.6497803 3.9828796l0 47.726807c0 3.1108398 -2.52182 5.63266 -5.63266 5.63266l-22.529968 0c-3.1108093 0 -5.63266 -2.52182 -5.63266 -5.63266z" fill-rule="evenodd"/><path fill="#000000" fill-opacity="0.0" d="m323.34406 277.41702l44.661407 0" fill-rule="evenodd"/><path stroke="#00a891" stroke-width="2.0" stroke-linejoin="round" stroke-linecap="butt" d="m323.34406 277.41702l44.661407 0" fill-rule="evenodd"/><path fill="#000000" fill-opacity="0.0" d="m182.99103 272.08536l0 33.322815" fill-rule="evenodd"/><path stroke="#00a891" stroke-width="2.0" stroke-linejoin="round" stroke-linecap="butt" d="m182.99103 272.08536l0 33.322815" fill-rule="evenodd"/><path fill="#000000" fill-opacity="0.0" d="m323.34406 272.08536l0 32.472443" fill-rule="evenodd"/><path stroke="#00a891" stroke-width="2.0" stroke-linejoin="round" stroke-linecap="butt" d="m323.34406 272.08536l0 32.472443" fill-rule="evenodd"/><path fill="#000000" fill-opacity="0.0" d="m323.34406 325.8561l44.661407 0" fill-rule="evenodd"/><path stroke="#00a891" stroke-width="2.0" stroke-linejoin="round" stroke-linecap="butt" d="m323.34406 325.8561l44.661407 0" fill-rule="evenodd"/><path fill="#000000" fill-opacity="0.0" d="m406.88278 325.84634l0 0c0 11.184845 -8.651123 20.251953 -19.322815 20.251953l0 0c-5.124756 0 -10.039581 -2.133667 -13.66333 -5.931671c-3.6237183 -3.7979736 -5.6595154 -8.949127 -5.6595154 -14.320282l0 0c0 -11.1848755 8.651123 -20.251984 19.322845 -20.251984l0 0c10.671692 0 19.322815 9.067108 19.322815 20.251984z" fill-rule="evenodd"/><path stroke="#00a891" stroke-width="2.0" stroke-linejoin="round" stroke-linecap="butt" d="m406.88278 325.84634l0 0c0 11.184845 -8.651123 20.251953 -19.322815 20.251953l0 0c-5.124756 0 -10.039581 -2.133667 -13.66333 -5.931671c-3.6237183 -3.7979736 -5.6595154 -8.949127 -5.6595154 -14.320282l0 0c0 -11.1848755 8.651123 -20.251984 19.322845 -20.251984l0 0c10.671692 0 19.322815 9.067108 19.322815 20.251984z" fill-rule="evenodd"/><path fill="#000000" fill-opacity="0.0" d="m407.5626 294.66974l-38.64569 0l0 -40.503937l38.64569 0z" fill-rule="evenodd"/><path stroke="#00a891" stroke-width="2.0" stroke-linejoin="round" stroke-linecap="butt" d="m407.5626 294.66974l-38.64569 0l0 -40.503937l38.64569 0z" fill-rule="evenodd"/><path fill="#000000" fill-opacity="0.0" d="m182.58276 280.3717l-44.661423 0" fill-rule="evenodd"/><path stroke="#00a891" stroke-width="2.0" stroke-linejoin="round" stroke-linecap="butt" d="m182.58276 280.3717l-44.661423 0" fill-rule="evenodd"/><path fill="#000000" fill-opacity="0.0" d="m99.04402 260.1295l38.645676 0l0 40.503937l-38.645676 0z" fill-rule="evenodd"/><path stroke="#00a891" stroke-width="2.0" stroke-linejoin="round" stroke-linecap="butt" d="m99.04402 260.1295l38.645676 0l0 40.503937l-38.645676 0z" fill-rule="evenodd"/><path fill="#000000" fill-opacity="0.0" d="m182.38817 435.7498l-135.14961 0" fill-rule="evenodd"/><path stroke="#00a891" stroke-width="2.0" stroke-linejoin="round" stroke-linecap="butt" d="m182.38817 435.7498l-135.14961 0" fill-rule="evenodd"/><path fill="#000000" fill-opacity="0.0" d="m8.0 433.7749l0 0c0 -11.184845 8.651127 -20.251984 19.322834 -20.251984l0 0c5.124737 0 10.039574 2.1336975 13.663307 5.931671c3.6237335 3.7979736 5.659527 8.949158 5.659527 14.3203125l0 0c0 11.184845 -8.651127 20.251953 -19.322834 20.251953l0 0c-10.671707 0 -19.322834 -9.067108 -19.322834 -20.251953z" fill-rule="evenodd"/><path stroke="#00a891" stroke-width="2.0" stroke-linejoin="round" stroke-linecap="butt" d="m8.0 433.7749l0 0c0 -11.184845 8.651127 -20.251984 19.322834 -20.251984l0 0c5.124737 0 10.039574 2.1336975 13.663307 5.931671c3.6237335 3.7979736 5.659527 8.949158 5.659527 14.3203125l0 0c0 11.184845 -8.651127 20.251953 -19.322834 20.251953l0 0c-10.671707 0 -19.322834 -9.067108 -19.322834 -20.251953z" fill-rule="evenodd"/><path fill="#000000" fill-opacity="0.0" d="m182.99103 398.21536l0 37.543304" fill-rule="evenodd"/><path stroke="#00a891" stroke-width="2.0" stroke-linejoin="round" stroke-linecap="butt" d="m182.99103 398.21536l0 37.543304" fill-rule="evenodd"/><path fill="#000000" fill-opacity="0.0" d="m69.204124 393.2905l0 0c0 -11.184845 8.651131 -20.251984 19.322838 -20.251984l0 0c5.124733 0 10.039574 2.1336975 13.663307 5.931671c3.6237335 3.7979736 5.659523 8.949158 5.659523 14.3203125l0 0c0 11.184845 -8.651123 20.251953 -19.32283 20.251953l0 0c-10.671707 0 -19.322838 -9.067108 -19.322838 -20.251953z" fill-rule="evenodd"/><path stroke="#00a891" stroke-width="2.0" stroke-linejoin="round" stroke-linecap="butt" d="m69.204124 393.2905l0 0c0 -11.184845 8.651131 -20.251984 19.322838 -20.251984l0 0c5.124733 0 10.039574 2.1336975 13.663307 5.931671c3.6237335 3.7979736 5.659523 8.949158 5.659523 14.3203125l0 0c0 11.184845 -8.651123 20.251953 -19.32283 20.251953l0 0c-10.671707 0 -19.322838 -9.067108 -19.322838 -20.251953z" fill-rule="evenodd"/><path fill="#000000" fill-opacity="0.0" d="m88.28213 413.33105l0 22.425201" fill-rule="evenodd"/><path stroke="#00a891" stroke-width="2.0" stroke-linejoin="round" stroke-linecap="butt" d="m88.28213 413.33105l0 22.425201" fill-rule="evenodd"/><path fill="#000000" fill-opacity="0.0" d="m182.99103 435.74817l0 37.543304" fill-rule="evenodd"/><path stroke="#00a891" stroke-width="2.0" stroke-linejoin="round" stroke-linecap="butt" d="m182.99103 435.74817l0 37.543304" fill-rule="evenodd"/><path fill="#000000" fill-opacity="0.0" d="m163.65819 495.59235l0 0c0 -11.1848755 8.651138 -20.251984 19.322845 -20.251984l0 0c5.1247253 0 10.039566 2.1336975 13.6633 5.931671c3.6237335 3.7979736 5.6595306 8.949158 5.6595306 14.3203125l0 0c0 11.184845 -8.651123 20.251953 -19.32283 20.251953l0 0c-10.671707 0 -19.322845 -9.067108 -19.322845 -20.251953z" fill-rule="evenodd"/><path stroke="#00a891" stroke-width="2.0" stroke-linejoin="round" stroke-linecap="butt" d="m163.65819 495.59235l0 0c0 -11.1848755 8.651138 -20.251984 19.322845 -20.251984l0 0c5.1247253 0 10.039566 2.1336975 13.6633 5.931671c3.6237335 3.7979736 5.6595306 8.949158 5.6595306 14.3203125l0 0c0 11.184845 -8.651123 20.251953 -19.32283 20.251953l0 0c-10.671707 0 -19.322845 -9.067108 -19.322845 -20.251953z" fill-rule="evenodd"/><path fill="#000000" fill-opacity="0.0" d="m182.38736 396.23636l0 37.543304" fill-rule="evenodd"/><path stroke="#00a891" stroke-width="2.0" stroke-linejoin="round" stroke-linecap="butt" d="m182.38736 396.23636l0 37.543304" fill-rule="evenodd"/><path fill="#000000" fill-opacity="0.0" d="m182.3826 433.76556l0.59843445 41.5748" fill-rule="evenodd"/><path stroke="#00a891" stroke-width="2.0" stroke-linejoin="round" stroke-linecap="butt" d="m182.3826 433.76556l0.59843445 41.5748" fill-rule="evenodd"/><path fill="#000000" fill-opacity="0.0" d="m304.0204 495.51358l0 0c0 -11.184845 8.651154 -20.251953 19.322845 -20.251953l0 0c5.1247253 0 10.039581 2.133667 13.6633 5.931671c3.6237488 3.7979736 5.659546 8.949127 5.659546 14.320282l0 0c0 11.1848755 -8.651123 20.251984 -19.322845 20.251984l0 0c-10.671692 0 -19.322845 -9.067108 -19.322845 -20.251984z" fill-rule="evenodd"/><path stroke="#00a891" stroke-width="2.0" stroke-linejoin="round" stroke-linecap="butt" d="m304.0204 495.51358l0 0c0 -11.184845 8.651154 -20.251953 19.322845 -20.251953l0 0c5.1247253 0 10.039581 2.133667 13.6633 5.931671c3.6237488 3.7979736 5.659546 8.949127 5.659546 14.320282l0 0c0 11.1848755 -8.651123 20.251984 -19.322845 20.251984l0 0c-10.671692 0 -19.322845 -9.067108 -19.322845 -20.251984z" fill-rule="evenodd"/><path fill="#000000" fill-opacity="0.0" d="m322.74957 399.071l0 37.543304" fill-rule="evenodd"/><path stroke="#00a891" stroke-width="2.0" stroke-linejoin="round" stroke-linecap="butt" d="m322.74957 399.071l0 37.543304" fill-rule="evenodd"/><path fill="#000000" fill-opacity="0.0" d="m322.74957 436.60382l0 37.543304" fill-rule="evenodd"/><path stroke="#00a891" stroke-width="2.0" stroke-linejoin="round" stroke-linecap="butt" d="m322.74957 436.60382l0 37.543304" fill-rule="evenodd"/><path fill="#000000" fill-opacity="0.0" d="m182.98103 515.8443l0 56.944885" fill-rule="evenodd"/><path stroke="#00a891" stroke-width="2.0" stroke-linejoin="round" stroke-linecap="butt" d="m182.98103 515.8443l0 56.944885" fill-rule="evenodd"/><path fill="#000000" fill-opacity="0.0" d="m323.34323 515.76556l0 57.039368" fill-rule="evenodd"/><path stroke="#00a891" stroke-width="2.0" stroke-linejoin="round" stroke-linecap="butt" d="m323.34323 515.76556l0 57.039368" fill-rule="evenodd"/><path fill="#000000" fill-opacity="0.0" d="m182.99475 572.80444l60.472443 60.472473" fill-rule="evenodd"/><path stroke="#00a891" stroke-width="2.0" stroke-linejoin="round" stroke-linecap="butt" d="m182.99475 572.80444l60.472443 60.472473" fill-rule="evenodd"/><path fill="#000000" fill-opacity="0.0" d="m262.8714 633.2769l60.472443 -60.472473" fill-rule="evenodd"/><path stroke="#00a891" stroke-width="2.0" stroke-linejoin="round" stroke-linecap="butt" d="m262.8714 633.2769l60.472443 -60.472473" fill-rule="evenodd"/><path fill="#000000" fill-opacity="0.0" d="m261.8951 672.45483l0 0c3.6843567 2.1569824 6.233307 7.9524536 6.4358826 14.633179l-9.504669 0.8513794z" fill-rule="evenodd"/><path fill="#000000" fill-opacity="0.0" d="m261.8951 672.45483l0 0c3.6843567 2.1569824 6.233307 7.9524536 6.4358826 14.633179" fill-rule="evenodd"/><path stroke="#00a891" stroke-width="2.0" stroke-linejoin="round" stroke-linecap="butt" d="m261.8951 672.45483l0 0c3.6843567 2.1569824 6.233307 7.9524536 6.4358826 14.633179" fill-rule="evenodd"/><path fill="#000000" fill-opacity="0.0" d="m264.08493 673.99005l0 0c-6.3197327 -3.9467163 -5.941925 -9.991699 0.85498047 -13.680298l12.218842 7.0889893z" fill-rule="evenodd"/><path fill="#000000" fill-opacity="0.0" d="m264.08493 673.99005l0 0c-6.3197327 -3.9467163 -5.941925 -9.991699 0.85498047 -13.680298" fill-rule="evenodd"/><path stroke="#00a891" stroke-width="2.0" stroke-linejoin="round" stroke-linecap="butt" d="m264.08493 673.99005l0 0c-6.3197327 -3.9467163 -5.941925 -9.991699 0.85498047 -13.680298" fill-rule="evenodd"/><path fill="#000000" fill-opacity="0.0" d="m268.31924 651.9983l0 -18.495056" fill-rule="evenodd"/><path stroke="#00a891" stroke-width="2.0" stroke-linejoin="round" stroke-linecap="butt" d="m268.31924 651.9983l0 -18.495056" fill-rule="evenodd"/><path fill="#000000" fill-opacity="0.0" d="m268.3088 651.9854l0 0c-0.0039978027 4.1453247 -2.366333 7.9784546 -6.207947 10.072876l-6.339615 -10.083374z" fill-rule="evenodd"/><path fill="#000000" fill-opacity="0.0" d="m268.3088 651.9854l0 0c-0.0039978027 4.1453247 -2.366333 7.9784546 -6.207947 10.072876" fill-rule="evenodd"/><path stroke="#00a891" stroke-width="2.0" stroke-linejoin="round" stroke-linecap="butt" d="m268.3088 651.9854l0 0c-0.0039978027 4.1453247 -2.366333 7.9784546 -6.207947 10.072876" fill-rule="evenodd"/><path fill="#000000" fill-opacity="0.0" d="m246.3945 672.2285l0 0c-3.684372 2.1569824 -6.233307 7.9524536 -6.4358826 14.633179l9.504654 0.8513794z" fill-rule="evenodd"/><path fill="#000000" fill-opacity="0.0" d="m246.3945 672.2285l0 0c-3.684372 2.1569824 -6.233307 7.9524536 -6.4358826 14.633179" fill-rule="evenodd"/><path stroke="#00a891" stroke-width="2.0" stroke-linejoin="round" stroke-linecap="butt" d="m246.3945 672.2285l0 0c-3.684372 2.1569824 -6.233307 7.9524536 -6.4358826 14.633179" fill-rule="evenodd"/><path fill="#000000" fill-opacity="0.0" d="m244.20468 673.76373l0 0c6.3197174 -3.9467163 5.941925 -9.991699 -0.85498047 -13.680298l-12.218857 7.0889893z" fill-rule="evenodd"/><path fill="#000000" fill-opacity="0.0" d="m244.20468 673.76373l0 0c6.3197174 -3.9467163 5.941925 -9.991699 -0.85498047 -13.680298" fill-rule="evenodd"/><path stroke="#00a891" stroke-width="2.0" stroke-linejoin="round" stroke-linecap="butt" d="m244.20468 673.76373l0 0c6.3197174 -3.9467163 5.941925 -9.991699 -0.85498047 -13.680298" fill-rule="evenodd"/><path fill="#000000" fill-opacity="0.0" d="m239.97037 651.772l0 -18.495056" fill-rule="evenodd"/><path stroke="#00a891" stroke-width="2.0" stroke-linejoin="round" stroke-linecap="butt" d="m239.97037 651.772l0 -18.495056" fill-rule="evenodd"/><path fill="#000000" fill-opacity="0.0" d="m239.9808 651.7591l0 0c0.0039978027 4.1453857 2.3663177 7.9784546 6.2079315 10.072876l6.33963 -10.083374z" fill-rule="evenodd"/><path fill="#000000" fill-opacity="0.0" d="m239.9808 651.7591l0 0c0.0039978027 4.1453857 2.3663177 7.9784546 6.2079315 10.072876" fill-rule="evenodd"/><path stroke="#00a891" stroke-width="2.0" stroke-linejoin="round" stroke-linecap="butt" d="m239.9808 651.7591l0 0c0.0039978027 4.1453857 2.3663177 7.9784546 6.2079315 10.072876" fill-rule="evenodd"/><path fill="#000000" fill-opacity="0.0" d="m268.57996 633.4994l-28.552673 0" fill-rule="evenodd"/><path stroke="#00a891" stroke-width="2.0" stroke-linejoin="round" stroke-linecap="butt" d="m268.57996 633.4994l-28.552673 0" fill-rule="evenodd"/><path fill="#000000" fill-opacity="0.0" d="m254.14436 231.77559l198.99211 0" fill-rule="evenodd"/><path stroke="#00a891" stroke-width="2.0" stroke-linejoin="round" stroke-linecap="butt" d="m254.14436 231.77559l198.99211 0" fill-rule="evenodd"/><path fill="#000000" fill-opacity="0.0" d="m453.13647 231.77559l0 185.48033" fill-rule="evenodd"/><path stroke="#00a891" stroke-width="2.0" stroke-linejoin="round" stroke-linecap="butt" d="m453.13647 231.77559l0 185.48033" fill-rule="evenodd"/><path fill="#000000" fill-opacity="0.0" d="m453.13647 417.25592l35.275604 0" fill-rule="evenodd"/><path stroke="#00a891" stroke-width="2.0" stroke-linejoin="round" stroke-linecap="butt" d="m453.13647 417.25592l35.275604 0" fill-rule="evenodd"/><path fill="#000000" fill-opacity="0.0" d="m488.4127 417.84308l0 0c0 -11.184845 8.651123 -20.251984 19.322845 -20.251984l0 0c5.124695 0 10.039551 2.1336975 13.663269 5.931671c3.6237793 3.7979736 5.659546 8.949158 5.659546 14.3203125l0 0c0 11.184845 -8.651123 20.251953 -19.322815 20.251953l0 0c-10.671722 0 -19.322845 -9.067108 -19.322845 -20.251953z" fill-rule="evenodd"/><path stroke="#00a891" stroke-width="2.0" stroke-linejoin="round" stroke-linecap="butt" d="m488.4127 417.84308l0 0c0 -11.184845 8.651123 -20.251984 19.322845 -20.251984l0 0c5.124695 0 10.039551 2.1336975 13.663269 5.931671c3.6237793 3.7979736 5.659546 8.949158 5.659546 14.3203125l0 0c0 11.184845 -8.651123 20.251953 -19.322815 20.251953l0 0c-10.671722 0 -19.322845 -9.067108 -19.322845 -20.251953z" fill-rule="evenodd"/><path fill="#000000" fill-opacity="0.0" d="m240.90666 644.97516l-53.637787 0" fill-rule="evenodd"/><path stroke="#00a891" stroke-width="2.0" stroke-linejoin="round" stroke-linecap="butt" d="m240.90666 644.97516l-53.637787 0" fill-rule="evenodd"/><path fill="#000000" fill-opacity="0.0" d="m187.24406 665.21735l-38.64566 0l0 -40.503906l38.64566 0z" fill-rule="evenodd"/><path stroke="#00a891" stroke-width="2.0" stroke-linejoin="round" stroke-linecap="butt" d="m187.24406 665.21735l-38.64566 0l0 -40.503906l38.64566 0z" fill-rule="evenodd"/><path fill="#000000" fill-opacity="0.0" d="m453.13647 417.25592l0 76.81888" fill-rule="evenodd"/><path stroke="#00a891" stroke-width="2.0" stroke-linejoin="round" stroke-linecap="butt" d="m453.13647 417.25592l0 76.81888" fill-rule="evenodd"/><path fill="#000000" fill-opacity="0.0" d="m452.99677 495.67108l-110.33069 -0.15750122" fill-rule="evenodd"/><path stroke="#00a891" stroke-width="2.0" stroke-linejoin="round" stroke-linecap="butt" stroke-dasharray="2.0,6.0" d="m452.99677 495.67108l-110.33069 -0.15750122" fill-rule="evenodd"/><path fill="#000000" fill-opacity="0.0" d="m304.0204 495.51358l-101.700775 0.09451294" fill-rule="evenodd"/><path stroke="#00a891" stroke-width="2.0" stroke-linejoin="round" stroke-linecap="butt" stroke-dasharray="2.0,6.0" d="m304.0204 495.51358l-101.700775 0.09451294" fill-rule="evenodd"/></g></svg>