<svg version="1.1" viewBox="0.0 0.0 530.3595800524935 697.5616797900262" fill="none" stroke="none" stroke-linecap="square" stroke-miterlimit="10" xmlns:xlink="http://www.w3.org/1999/xlink" xmlns="http://www.w3.org/2000/svg"><clipPath id="p.0"><path d="m0 0l530.35956 0l0 697.5617l-530.35956 0l0 -697.5617z" clip-rule="nonzero"/></clipPath><g clip-path="url(#p.0)"><path fill="#000000" fill-opacity="0.0" d="m0 0l530.35956 0l0 697.5617l-530.35956 0z" fill-rule="evenodd"/><path fill="#000000" fill-opacity="0.0" d="m254.1355 66.99344l0 62.960632" fill-rule="evenodd"/><path stroke="#00a891" stroke-width="2.0" stroke-linejoin="round" stroke-linecap="butt" d="m254.1355 66.99344l0 62.960632" fill-rule="evenodd"/><path fill="#000000" fill-opacity="0.0" d="m254.14433 129.95824l-55.842514 0" fill-rule="evenodd"/><path stroke="#00a891" stroke-width="2.0" stroke-linejoin="round" stroke-linecap="butt" d="m254.14433 129.95824l-55.842514 0" fill-rule="evenodd"/><path fill="#000000" fill-opacity="0.0" d="m60.8079 129.96802l0 0c0 -11.18486 8.651131 -20.251976 19.322838 -20.251976l0 0c5.124733 0 10.039566 2.1336823 13.663307 5.9316635c3.6237335 3.7979813 5.659523 8.94915 5.659523 14.3203125l0 0c0 11.184845 -8.651123 20.251968 -19.32283 20.251968l0 0c-10.671707 0 -19.322838 -9.067123 -19.322838 -20.251968z" fill-rule="evenodd"/><path stroke="#00a891" stroke-width="2.0" stroke-linejoin="round" stroke-linecap="butt" d="m60.8079 129.96802l0 0c0 -11.18486 8.651131 -20.251976 19.322838 -20.251976l0 0c5.124733 0 10.039566 2.1336823 13.663307 5.9316635c3.6237335 3.7979813 5.659523 8.94915 5.659523 14.3203125l0 0c0 11.184845 -8.651123 20.251968 -19.32283 20.251968l0 0c-10.671707 0 -19.322838 -9.067123 -19.322838 -20.251968z" fill-rule="evenodd"/><path fill="#000000" fill-opacity="0.0" d="m198.30685 129.95824l-98.645676 0" fill-rule="evenodd"/><path stroke="#00a891" stroke-width="2.0" stroke-linejoin="round" stroke-linecap="butt" d="m198.30685 129.95824l-98.645676 0" fill-rule="evenodd"/><path fill="#000000" fill-opacity="0.0" d="m160.05547 129.96423l0 -42.173225" fill-rule="evenodd"/><path stroke="#00a891" stroke-width="2.0" stroke-linejoin="round" stroke-linecap="butt" d="m160.05547 129.96423l0 -42.173225" fill-rule="evenodd"/><path fill="#000000" fill-opacity="0.0" d="m160.05547 87.80098l-28.18898 0" fill-rule="evenodd"/><path stroke="#00a891" stroke-width="2.0" stroke-linejoin="round" stroke-linecap="butt" d="m160.05547 87.80098l-28.18898 0" fill-rule="evenodd"/><path fill="#000000" fill-opacity="0.0" d="m93.22905 87.81075l0 0c0 -11.184853 8.651131 -20.251968 19.322838 -20.251968l0 0c5.124733 0 10.039574 2.1336823 13.663307 5.9316635c3.6237335 3.7979813 5.6595306 8.94915 5.6595306 14.320305l0 0c0 11.184853 -8.651131 20.251968 -19.322838 20.251968l0 0c-10.671707 0 -19.322838 -9.067116 -19.322838 -20.251968z" fill-rule="evenodd"/><path stroke="#00a891" stroke-width="2.0" stroke-linejoin="round" stroke-linecap="butt" d="m93.22905 87.81075l0 0c0 -11.184853 8.651131 -20.251968 19.322838 -20.251968l0 0c5.124733 0 10.039574 2.1336823 13.663307 5.9316635c3.6237335 3.7979813 5.6595306 8.94915 5.6595306 14.320305l0 0c0 11.184853 -8.651131 20.251968 -19.322838 20.251968l0 0c-10.671707 0 -19.322838 -9.067116 -19.322838 -20.251968z" fill-rule="evenodd"/><path fill="#000000" fill-opacity="0.0" d="m254.14433 129.95824l0 53.984253" fill-rule="evenodd"/><path stroke="#00a891" stroke-width="2.0" stroke-linejoin="round" stroke-linecap="butt" d="m254.14433 129.95824l0 53.984253" fill-rule="evenodd"/><path fill="#000000" fill-opacity="0.0" d="m234.82214 204.1974l0 0c0 -11.184845 8.651123 -20.251968 19.32283 -20.251968l0 0c5.1247406 0 10.039566 2.1336823 13.663315 5.931671c3.6237183 3.7979736 5.6595154 8.949142 5.6595154 14.320297l0 0c0 11.18486 -8.651123 20.251968 -19.32283 20.251968l0 0c-10.671707 0 -19.32283 -9.067108 -19.32283 -20.251968z" fill-rule="evenodd"/><path stroke="#00a891" stroke-width="2.0" stroke-linejoin="round" stroke-linecap="butt" d="m234.82214 204.1974l0 0c0 -11.184845 8.651123 -20.251968 19.32283 -20.251968l0 0c5.1247406 0 10.039566 2.1336823 13.663315 5.931671c3.6237183 3.7979736 5.6595154 8.949142 5.6595154 14.320297l0 0c0 11.18486 -8.651123 20.251968 -19.32283 20.251968l0 0c-10.671707 0 -19.32283 -9.067108 -19.32283 -20.251968z" fill-rule="evenodd"/><path fill="#000000" fill-opacity="0.0" d="m254.14433 129.95824l53.637802 0" fill-rule="evenodd"/><path stroke="#00a891" stroke-width="2.0" stroke-linejoin="round" stroke-linecap="butt" d="m254.14433 129.95824l53.637802 0" fill-rule="evenodd"/><path fill="#000000" fill-opacity="0.0" d="m307.80692 109.71604l38.64569 0l0 40.503944l-38.64569 0z" fill-rule="evenodd"/><path stroke="#00a891" stroke-width="2.0" stroke-linejoin="round" stroke-linecap="butt" d="m307.80692 109.71604l38.64569 0l0 40.503944l-38.64569 0z" fill-rule="evenodd"/><path fill="#000000" fill-opacity="0.0" d="m254.14433 224.42984l0 47.653534" fill-rule="evenodd"/><path stroke="#00a891" stroke-width="2.0" stroke-linejoin="round" stroke-linecap="butt" d="m254.14433 224.42984l0 47.653534" fill-rule="evenodd"/><path fill="#000000" fill-opacity="0.0" d="m254.14433 272.08536l-71.14961 0" fill-rule="evenodd"/><path stroke="#00a891" stroke-width="2.0" stroke-linejoin="round" stroke-linecap="butt" d="m254.14433 272.08536l-71.14961 0" fill-rule="evenodd"/><path fill="#000000" fill-opacity="0.0" d="m323.34406 272.08536l-71.14961 0" fill-rule="evenodd"/><path stroke="#00a891" stroke-width="2.0" stroke-linejoin="round" stroke-linecap="butt" d="m323.34406 272.08536l-71.14961 0" fill-rule="evenodd"/><path fill="#000000" fill-opacity="0.0" d="m182.99103 302.5446l0 37.543304" fill-rule="evenodd"/><path stroke="#00a891" stroke-width="2.0" stroke-linejoin="round" stroke-linecap="butt" d="m182.99103 302.5446l0 37.543304" fill-rule="evenodd"/><path fill="#000000" fill-opacity="0.0" d="m323.34406 302.5446l0 37.543304" fill-rule="evenodd"/><path stroke="#00a891" stroke-width="2.0" stroke-linejoin="round" stroke-linecap="butt" d="m323.34406 302.5446l0 37.543304" fill-rule="evenodd"/><path fill="#000000" fill-opacity="0.0" d="m323.34406 277.41702l44.661407 0" fill-rule="evenodd"/><path stroke="#00a891" stroke-width="2.0" stroke-linejoin="round" stroke-linecap="butt" d="m323.34406 277.41702l44.661407 0" fill-rule="evenodd"/><path fill="#000000" fill-opacity="0.0" d="m182.99103 272.08536l0 33.322815" fill-rule="evenodd"/><path stroke="#00a891" stroke-width="2.0" stroke-linejoin="round" stroke-linecap="butt" d="m182.99103 272.08536l0 33.322815" fill-rule="evenodd"/><path fill="#000000" fill-opacity="0.0" d="m323.34406 272.08536l0 32.472443" fill-rule="evenodd"/><path stroke="#00a891" stroke-width="2.0" stroke-linejoin="round" stroke-linecap="butt" d="m323.34406 272.08536l0 32.472443" fill-rule="evenodd"/><path fill="#000000" fill-opacity="0.0" d="m323.34406 325.8561l44.661407 0" fill-rule="evenodd"/><path stroke="#00a891" stroke-width="2.0" stroke-linejoin="round" stroke-linecap="butt" d="m323.34406 325.8561l44.661407 0" fill-rule="evenodd"/><path fill="#000000" fill-opacity="0.0" d="m406.88278 325.84634l0 0c0 11.184845 -8.651123 20.251953 -19.322815 20.251953l0 0c-5.124756 0 -10.039581 -2.133667 -13.66333 -5.931671c-3.6237183 -3.7979736 -5.6595154 -8.949127 -5.6595154 -14.320282l0 0c0 -11.1848755 8.651123 -20.251984 19.322845 -20.251984l0 0c10.671692 0 19.322815 9.067108 19.322815 20.251984z" fill-rule="evenodd"/><path stroke="#00a891" stroke-width="2.0" stroke-linejoin="round" stroke-linecap="butt" d="m406.88278 325.84634l0 0c0 11.184845 -8.651123 20.251953 -19.322815 20.251953l0 0c-5.124756 0 -10.039581 -2.133667 -13.66333 -5.931671c-3.6237183 -3.7979736 -5.6595154 -8.949127 -5.6595154 -14.320282l0 0c0 -11.1848755 8.651123 -20.251984 19.322845 -20.251984l0 0c10.671692 0 19.322815 9.067108 19.322815 20.251984z" fill-rule="evenodd"/><path fill="#000000" fill-opacity="0.0" d="m407.5626 294.66974l-38.64569 0l0 -40.503937l38.64569 0z" fill-rule="evenodd"/><path stroke="#00a891" stroke-width="2.0" stroke-linejoin="round" stroke-linecap="butt" d="m407.5626 294.66974l-38.64569 0l0 -40.503937l38.64569 0z" fill-rule="evenodd"/><path fill="#000000" fill-opacity="0.0" d="m182.58276 280.3717l-44.661423 0" fill-rule="evenodd"/><path stroke="#00a891" stroke-width="2.0" stroke-linejoin="round" stroke-linecap="butt" d="m182.58276 280.3717l-44.661423 0" fill-rule="evenodd"/><path fill="#000000" fill-opacity="0.0" d="m99.04402 260.1295l38.645676 0l0 40.503937l-38.645676 0z" fill-rule="evenodd"/><path stroke="#00a891" stroke-width="2.0" stroke-linejoin="round" stroke-linecap="butt" d="m99.04402 260.1295l38.645676 0l0 40.503937l-38.645676 0z" fill-rule="evenodd"/><path fill="#000000" fill-opacity="0.0" d="m182.38817 435.7498l-135.14961 0" fill-rule="evenodd"/><path stroke="#00a891" stroke-width="2.0" stroke-linejoin="round" stroke-linecap="butt" d="m182.38817 435.7498l-135.14961 0" fill-rule="evenodd"/><path fill="#000000" fill-opacity="0.0" d="m8.593176 435.75128l0 0c0 -11.1848755 8.651127 -20.251984 19.322834 -20.251984l0 0c5.124735 0 10.039572 2.1336975 13.663309 5.931671c3.6237335 3.7979736 5.659527 8.949158 5.659527 14.3203125l0 0c0 11.184845 -8.651127 20.251953 -19.322836 20.251953l0 0c-10.671707 0 -19.322834 -9.067108 -19.322834 -20.251953z" fill-rule="evenodd"/><path stroke="#00a891" stroke-width="2.0" stroke-linejoin="round" stroke-linecap="butt" d="m8.593176 435.75128l0 0c0 -11.1848755 8.651127 -20.251984 19.322834 -20.251984l0 0c5.124735 0 10.039572 2.1336975 13.663309 5.931671c3.6237335 3.7979736 5.659527 8.949158 5.659527 14.3203125l0 0c0 11.184845 -8.651127 20.251953 -19.322836 20.251953l0 0c-10.671707 0 -19.322834 -9.067108 -19.322834 -20.251953z" fill-rule="evenodd"/><path fill="#000000" fill-opacity="0.0" d="m182.99103 398.21536l0 37.543304" fill-rule="evenodd"/><path stroke="#00a891" stroke-width="2.0" stroke-linejoin="round" stroke-linecap="butt" d="m182.99103 398.21536l0 37.543304" fill-rule="evenodd"/><path fill="#000000" fill-opacity="0.0" d="m69.204124 393.2905l0 0c0 -11.184845 8.651131 -20.251984 19.322838 -20.251984l0 0c5.124733 0 10.039574 2.1336975 13.663307 5.931671c3.6237335 3.7979736 5.659523 8.949158 5.659523 14.3203125l0 0c0 11.184845 -8.651123 20.251953 -19.32283 20.251953l0 0c-10.671707 0 -19.322838 -9.067108 -19.322838 -20.251953z" fill-rule="evenodd"/><path stroke="#00a891" stroke-width="2.0" stroke-linejoin="round" stroke-linecap="butt" d="m69.204124 393.2905l0 0c0 -11.184845 8.651131 -20.251984 19.322838 -20.251984l0 0c5.124733 0 10.039574 2.1336975 13.663307 5.931671c3.6237335 3.7979736 5.659523 8.949158 5.659523 14.3203125l0 0c0 11.184845 -8.651123 20.251953 -19.32283 20.251953l0 0c-10.671707 0 -19.322838 -9.067108 -19.322838 -20.251953z" fill-rule="evenodd"/><path fill="#000000" fill-opacity="0.0" d="m88.28213 413.33105l0 22.425201" fill-rule="evenodd"/><path stroke="#00a891" stroke-width="2.0" stroke-linejoin="round" stroke-linecap="butt" d="m88.28213 413.33105l0 22.425201" fill-rule="evenodd"/><path fill="#000000" fill-opacity="0.0" d="m182.99103 435.74817l0 37.543304" fill-rule="evenodd"/><path stroke="#00a891" stroke-width="2.0" stroke-linejoin="round" stroke-linecap="butt" d="m182.99103 435.74817l0 37.543304" fill-rule="evenodd"/><path fill="#000000" fill-opacity="0.0" d="m163.65819 495.59235l0 0c0 -11.1848755 8.651138 -20.251984 19.322845 -20.251984l0 0c5.1247253 0 10.039566 2.1336975 13.6633 5.931671c3.6237335 3.7979736 5.6595306 8.949158 5.6595306 14.3203125l0 0c0 11.184845 -8.651123 20.251953 -19.32283 20.251953l0 0c-10.671707 0 -19.322845 -9.067108 -19.322845 -20.251953z" fill-rule="evenodd"/><path stroke="#00a891" stroke-width="2.0" stroke-linejoin="round" stroke-linecap="butt" d="m163.65819 495.59235l0 0c0 -11.1848755 8.651138 -20.251984 19.322845 -20.251984l0 0c5.1247253 0 10.039566 2.1336975 13.6633 5.931671c3.6237335 3.7979736 5.6595306 8.949158 5.6595306 14.3203125l0 0c0 11.184845 -8.651123 20.251953 -19.32283 20.251953l0 0c-10.671707 0 -19.322845 -9.067108 -19.322845 -20.251953z" fill-rule="evenodd"/><path fill="#000000" fill-opacity="0.0" d="m182.9822 399.07104l-0.5984192 34.70868" fill-rule="evenodd"/><path stroke="#00a891" stroke-width="2.0" stroke-linejoin="round" stroke-linecap="butt" d="m182.9822 399.07104l-0.5984192 34.70868" fill-rule="evenodd"/><path fill="#000000" fill-opacity="0.0" d="m182.3826 433.76556l0.59843445 41.5748" fill-rule="evenodd"/><path stroke="#00a891" stroke-width="2.0" stroke-linejoin="round" stroke-linecap="butt" d="m182.3826 433.76556l0.59843445 41.5748" fill-rule="evenodd"/><path fill="#000000" fill-opacity="0.0" d="m304.0204 495.51358l0 0c0 -11.184845 8.651154 -20.251953 19.322845 -20.251953l0 0c5.1247253 0 10.039581 2.133667 13.6633 5.931671c3.6237488 3.7979736 5.659546 8.949127 5.659546 14.320282l0 0c0 11.1848755 -8.651123 20.251984 -19.322845 20.251984l0 0c-10.671692 0 -19.322845 -9.067108 -19.322845 -20.251984z" fill-rule="evenodd"/><path stroke="#00a891" stroke-width="2.0" stroke-linejoin="round" stroke-linecap="butt" d="m304.0204 495.51358l0 0c0 -11.184845 8.651154 -20.251953 19.322845 -20.251953l0 0c5.1247253 0 10.039581 2.133667 13.6633 5.931671c3.6237488 3.7979736 5.659546 8.949127 5.659546 14.320282l0 0c0 11.1848755 -8.651123 20.251984 -19.322845 20.251984l0 0c-10.671692 0 -19.322845 -9.067108 -19.322845 -20.251984z" fill-rule="evenodd"/><path fill="#000000" fill-opacity="0.0" d="m322.74957 399.071l0 37.543304" fill-rule="evenodd"/><path stroke="#00a891" stroke-width="2.0" stroke-linejoin="round" stroke-linecap="butt" d="m322.74957 399.071l0 37.543304" fill-rule="evenodd"/><path fill="#000000" fill-opacity="0.0" d="m322.74957 436.60382l0 37.543304" fill-rule="evenodd"/><path stroke="#00a891" stroke-width="2.0" stroke-linejoin="round" stroke-linecap="butt" d="m322.74957 436.60382l0 37.543304" fill-rule="evenodd"/><path fill="#000000" fill-opacity="0.0" d="m182.98103 515.8443l0 56.944885" fill-rule="evenodd"/><path stroke="#00a891" stroke-width="2.0" stroke-linejoin="round" stroke-linecap="butt" d="m182.98103 515.8443l0 56.944885" fill-rule="evenodd"/><path fill="#000000" fill-opacity="0.0" d="m323.34323 515.76556l0 57.039368" fill-rule="evenodd"/><path stroke="#00a891" stroke-width="2.0" stroke-linejoin="round" stroke-linecap="butt" d="m323.34323 515.76556l0 57.039368" fill-rule="evenodd"/><path fill="#000000" fill-opacity="0.0" d="m182.99475 572.80444l60.472443 60.472473" fill-rule="evenodd"/><path stroke="#00a891" stroke-width="2.0" stroke-linejoin="round" stroke-linecap="butt" d="m182.99475 572.80444l60.472443 60.472473" fill-rule="evenodd"/><path fill="#000000" fill-opacity="0.0" d="m262.8714 633.2769l60.472443 -60.472473" fill-rule="evenodd"/><path stroke="#00a891" stroke-width="2.0" stroke-linejoin="round" stroke-linecap="butt" d="m262.8714 633.2769l60.472443 -60.472473" fill-rule="evenodd"/><path fill="#000000" fill-opacity="0.0" d="m261.8951 672.45483l0 0c3.6843567 2.1569824 6.233307 7.9524536 6.4358826 14.633179l-9.504669 0.8513794z" fill-rule="evenodd"/><path fill="#000000" fill-opacity="0.0" d="m261.8951 672.45483l0 0c3.6843567 2.1569824 6.233307 7.9524536 6.4358826 14.633179" fill-rule="evenodd"/><path stroke="#00a891" stroke-width="2.0" stroke-linejoin="round" stroke-linecap="butt" d="m261.8951 672.45483l0 0c3.6843567 2.1569824 6.233307 7.9524536 6.4358826 14.633179" fill-rule="evenodd"/><path fill="#000000" fill-opacity="0.0" d="m264.08493 673.99005l0 0c-6.3197327 -3.9467163 -5.941925 -9.991699 0.85498047 -13.680298l12.218842 7.0889893z" fill-rule="evenodd"/><path fill="#000000" fill-opacity="0.0" d="m264.08493 673.99005l0 0c-6.3197327 -3.9467163 -5.941925 -9.991699 0.85498047 -13.680298" fill-rule="evenodd"/><path stroke="#00a891" stroke-width="2.0" stroke-linejoin="round" stroke-linecap="butt" d="m264.08493 673.99005l0 0c-6.3197327 -3.9467163 -5.941925 -9.991699 0.85498047 -13.680298" fill-rule="evenodd"/><path fill="#000000" fill-opacity="0.0" d="m268.31924 651.9983l0 -18.495056" fill-rule="evenodd"/><path stroke="#00a891" stroke-width="2.0" stroke-linejoin="round" stroke-linecap="butt" d="m268.31924 651.9983l0 -18.495056" fill-rule="evenodd"/><path fill="#000000" fill-opacity="0.0" d="m268.3088 651.9854l0 0c-0.0039978027 4.1453247 -2.366333 7.9784546 -6.207947 10.072876l-6.339615 -10.083374z" fill-rule="evenodd"/><path fill="#000000" fill-opacity="0.0" d="m268.3088 651.9854l0 0c-0.0039978027 4.1453247 -2.366333 7.9784546 -6.207947 10.072876" fill-rule="evenodd"/><path stroke="#00a891" stroke-width="2.0" stroke-linejoin="round" stroke-linecap="butt" d="m268.3088 651.9854l0 0c-0.0039978027 4.1453247 -2.366333 7.9784546 -6.207947 10.072876" fill-rule="evenodd"/><path fill="#000000" fill-opacity="0.0" d="m246.3945 672.2285l0 0c-3.684372 2.1569824 -6.233307 7.9524536 -6.4358826 14.633179l9.504654 0.8513794z" fill-rule="evenodd"/><path fill="#000000" fill-opacity="0.0" d="m246.3945 672.2285l0 0c-3.684372 2.1569824 -6.233307 7.9524536 -6.4358826 14.633179" fill-rule="evenodd"/><path stroke="#00a891" stroke-width="2.0" stroke-linejoin="round" stroke-linecap="butt" d="m246.3945 672.2285l0 0c-3.684372 2.1569824 -6.233307 7.9524536 -6.4358826 14.633179" fill-rule="evenodd"/><path fill="#000000" fill-opacity="0.0" d="m244.20468 673.76373l0 0c6.3197174 -3.9467163 5.941925 -9.991699 -0.85498047 -13.680298l-12.218857 7.0889893z" fill-rule="evenodd"/><path fill="#000000" fill-opacity="0.0" d="m244.20468 673.76373l0 0c6.3197174 -3.9467163 5.941925 -9.991699 -0.85498047 -13.680298" fill-rule="evenodd"/><path stroke="#00a891" stroke-width="2.0" stroke-linejoin="round" stroke-linecap="butt" d="m244.20468 673.76373l0 0c6.3197174 -3.9467163 5.941925 -9.991699 -0.85498047 -13.680298" fill-rule="evenodd"/><path fill="#000000" fill-opacity="0.0" d="m239.97037 651.772l0 -18.495056" fill-rule="evenodd"/><path stroke="#00a891" stroke-width="2.0" stroke-linejoin="round" stroke-linecap="butt" d="m239.97037 651.772l0 -18.495056" fill-rule="evenodd"/><path fill="#000000" fill-opacity="0.0" d="m239.9808 651.7591l0 0c0.0039978027 4.1453857 2.3663177 7.9784546 6.2079315 10.072876l6.33963 -10.083374z" fill-rule="evenodd"/><path fill="#000000" fill-opacity="0.0" d="m239.9808 651.7591l0 0c0.0039978027 4.1453857 2.3663177 7.9784546 6.2079315 10.072876" fill-rule="evenodd"/><path stroke="#00a891" stroke-width="2.0" stroke-linejoin="round" stroke-linecap="butt" d="m239.9808 651.7591l0 0c0.0039978027 4.1453857 2.3663177 7.9784546 6.2079315 10.072876" fill-rule="evenodd"/><path fill="#000000" fill-opacity="0.0" d="m268.57996 633.4994l-28.552673 0" fill-rule="evenodd"/><path stroke="#00a891" stroke-width="2.0" stroke-linejoin="round" stroke-linecap="butt" d="m268.57996 633.4994l-28.552673 0" fill-rule="evenodd"/><path fill="#000000" fill-opacity="0.0" d="m254.14436 231.77559l198.99211 0" fill-rule="evenodd"/><path stroke="#00a891" stroke-width="2.0" stroke-linejoin="round" stroke-linecap="butt" d="m254.14436 231.77559l198.99211 0" fill-rule="evenodd"/><path fill="#000000" fill-opacity="0.0" d="m453.13647 231.77559l0 185.48033" fill-rule="evenodd"/><path stroke="#00a891" stroke-width="2.0" stroke-linejoin="round" stroke-linecap="butt" d="m453.13647 231.77559l0 185.48033" fill-rule="evenodd"/><path fill="#000000" fill-opacity="0.0" d="m453.13647 417.84122l35.275604 0" fill-rule="evenodd"/><path stroke="#00a891" stroke-width="2.0" stroke-linejoin="round" stroke-linecap="butt" d="m453.13647 417.84122l35.275604 0" fill-rule="evenodd"/><path fill="#000000" fill-opacity="0.0" d="m488.4127 417.84308l0 0c0 -11.184845 8.651123 -20.251984 19.322845 -20.251984l0 0c5.124695 0 10.039551 2.1336975 13.663269 5.931671c3.6237793 3.7979736 5.659546 8.949158 5.659546 14.3203125l0 0c0 11.184845 -8.651123 20.251953 -19.322815 20.251953l0 0c-10.671722 0 -19.322845 -9.067108 -19.322845 -20.251953z" fill-rule="evenodd"/><path stroke="#00a891" stroke-width="2.0" stroke-linejoin="round" stroke-linecap="butt" d="m488.4127 417.84308l0 0c0 -11.184845 8.651123 -20.251984 19.322845 -20.251984l0 0c5.124695 0 10.039551 2.1336975 13.663269 5.931671c3.6237793 3.7979736 5.659546 8.949158 5.659546 14.3203125l0 0c0 11.184845 -8.651123 20.251953 -19.322815 20.251953l0 0c-10.671722 0 -19.322845 -9.067108 -19.322845 -20.251953z" fill-rule="evenodd"/><path fill="#000000" fill-opacity="0.0" d="m240.90666 644.97516l-53.637787 0" fill-rule="evenodd"/><path stroke="#00a891" stroke-width="2.0" stroke-linejoin="round" stroke-linecap="butt" d="m240.90666 644.97516l-53.637787 0" fill-rule="evenodd"/><path fill="#000000" fill-opacity="0.0" d="m187.24406 665.21735l-38.64566 0l0 -40.503906l38.64566 0z" fill-rule="evenodd"/><path stroke="#00a891" stroke-width="2.0" stroke-linejoin="round" stroke-linecap="butt" d="m187.24406 665.21735l-38.64566 0l0 -40.503906l38.64566 0z" fill-rule="evenodd"/><path fill="#000000" fill-opacity="0.0" d="m453.13647 417.25592l0 76.81888" fill-rule="evenodd"/><path stroke="#00a891" stroke-width="2.0" stroke-linejoin="round" stroke-linecap="butt" d="m453.13647 417.25592l0 76.81888" fill-rule="evenodd"/><path fill="#000000" fill-opacity="0.0" d="m452.99677 495.67108l-110.33069 -0.15750122" fill-rule="evenodd"/><path stroke="#00a891" stroke-width="2.0" stroke-linejoin="round" stroke-linecap="butt" stroke-dasharray="2.0,6.0" d="m452.99677 495.67108l-110.33069 -0.15750122" fill-rule="evenodd"/><path fill="#000000" fill-opacity="0.0" d="m304.0204 495.51358l-101.700775 0.09451294" fill-rule="evenodd"/><path stroke="#00a891" stroke-width="2.0" stroke-linejoin="round" stroke-linecap="butt" stroke-dasharray="2.0,6.0" d="m304.0204 495.51358l-101.700775 0.09451294" fill-rule="evenodd"/><path fill="#000000" fill-opacity="0.0" d="m90.220474 70.850395l44.661423 0l0 33.921257l-44.661423 0z" fill-rule="evenodd"/><path fill="#00a891" d="m108.63907 89.05789q0 0.625 -0.234375 1.09375q-0.234375 0.453125 -0.65625 0.765625q-0.40625 0.296875 -0.984375 0.453125q-0.578125 0.140625 -1.25 0.140625q-0.609375 0 -1.171875 -0.078125q-0.5625 -0.0625 -1.109375 -0.234375l0 -1.421875q0.265625 0.09375 0.5625 0.171875q0.296875 0.078125 0.578125 0.140625q0.296875 0.0625 0.59375 0.109375q0.296875 0.03125 0.578125 0.03125q0.40625 0 0.6875 -0.0625q0.296875 -0.078125 0.46875 -0.203125q0.1875 -0.125 0.265625 -0.296875q0.078125 -0.171875 0.078125 -0.375q0 -0.28125 -0.15625 -0.46875q-0.15625 -0.1875 -0.421875 -0.328125q-0.265625 -0.15625 -0.609375 -0.265625q-0.328125 -0.125 -0.6875 -0.25q-0.34375 -0.140625 -0.6875 -0.3125q-0.328125 -0.171875 -0.59375 -0.421875q-0.265625 -0.25 -0.421875 -0.59375q-0.15625 -0.359375 -0.15625 -0.84375q0 -0.453125 0.15625 -0.859375q0.171875 -0.40625 0.515625 -0.703125q0.359375 -0.3125 0.90625 -0.484375q0.546875 -0.171875 1.328125 -0.171875q0.234375 0 0.484375 0.015625q0.25 0.015625 0.484375 0.046875q0.25 0.03125 0.46875 0.078125q0.234375 0.046875 0.421875 0.09375l0 1.3125q-0.1875 -0.0625 -0.421875 -0.125q-0.21875 -0.0625 -0.453125 -0.09375q-0.234375 -0.046875 -0.484375 -0.0625q-0.234375 -0.03125 -0.453125 -0.03125q-0.375 0 -0.640625 0.0625q-0.265625 0.0625 -0.4375 0.171875q-0.171875 0.09375 -0.25 0.265625q-0.078125 0.15625 -0.078125 0.34375q0 0.234375 0.15625 0.421875q0.171875 0.171875 0.4375 0.3125q0.265625 0.125 0.59375 0.25q0.34375 0.125 0.703125 0.265625q0.359375 0.125 0.6875 0.3125q0.34375 0.171875 0.609375 0.421875q0.265625 0.25 0.421875 0.59375q0.171875 0.34375 0.171875 0.8125zm4.8632812 2.3125l-1.90625 0l-2.34375 -7.65625l1.640625 0l1.296875 4.609375l0.40625 1.515625l0.4375 -1.609375l1.28125 -4.515625l1.53125 0l-2.34375 7.65625zm3.2382812 0l0 -1.265625l1.953125 0l0 -4.921875l-1.703125 0.9375l-0.46875 -1.171875l2.4375 -1.28125l1.203125 0l0 6.4375l1.671875 0l0 1.265625l-5.09375 0z" fill-rule="nonzero"/><path fill="#000000" fill-opacity="0.0" d="m57.800526 113.00787l44.66142 0l0 33.921265l-44.66142 0z" fill-rule="evenodd"/><path fill="#00a891" d="m76.219124 131.21538q0 0.625 -0.234375 1.09375q-0.234375 0.453125 -0.65625 0.765625q-0.40625 0.296875 -0.984375 0.453125q-0.578125 0.140625 -1.25 0.140625q-0.609375 0 -1.171875 -0.078125q-0.5625 -0.0625 -1.109375 -0.234375l0 -1.421875q0.265625 0.09375 0.5625 0.171875q0.296875 0.078125 0.578125 0.140625q0.296875 0.0625 0.59375 0.109375q0.296875 0.03125 0.578125 0.03125q0.40625 0 0.6875 -0.0625q0.296875 -0.078125 0.46875 -0.203125q0.1875 -0.125 0.265625 -0.296875q0.078125 -0.171875 0.078125 -0.375q0 -0.28125 -0.15625 -0.46875q-0.15625 -0.1875 -0.421875 -0.328125q-0.265625 -0.15625 -0.609375 -0.265625q-0.328125 -0.125 -0.6875 -0.25q-0.34375 -0.140625 -0.6875 -0.3125q-0.328125 -0.171875 -0.59375 -0.421875q-0.265625 -0.25 -0.421875 -0.59375q-0.15625 -0.359375 -0.15625 -0.84375q0 -0.453125 0.15625 -0.859375q0.171875 -0.40625 0.515625 -0.703125q0.359375 -0.3125 0.90625 -0.484375q0.546875 -0.171875 1.328125 -0.171875q0.234375 0 0.484375 0.015625q0.25 0.015625 0.484375 0.046875q0.25 0.03125 0.46875 0.078125q0.234375 0.046875 0.421875 0.09375l0 1.3125q-0.1875 -0.0625 -0.421875 -0.125q-0.21875 -0.0625 -0.453125 -0.09375q-0.234375 -0.046875 -0.484375 -0.0625q-0.234375 -0.03125 -0.453125 -0.03125q-0.375 0 -0.640625 0.0625q-0.265625 0.0625 -0.4375 0.171875q-0.171875 0.09375 -0.25 0.265625q-0.078125 0.15625 -0.078125 0.34375q0 0.234375 0.15625 0.421875q0.171875 0.171875 0.4375 0.3125q0.265625 0.125 0.59375 0.25q0.34375 0.125 0.703125 0.265625q0.359375 0.125 0.6875 0.3125q0.34375 0.171875 0.609375 0.421875q0.265625 0.25 0.421875 0.59375q0.171875 0.34375 0.171875 0.8125zm4.8632812 2.3125l-1.90625 0l-2.34375 -7.65625l1.640625 0l1.296875 4.609375l0.40625 1.515625l0.4375 -1.609375l1.28125 -4.515625l1.53125 0l-2.34375 7.65625zm3.0976562 0l0 -1.0625l1.8125 -1.796875q0.515625 -0.515625 0.8125 -0.875q0.3125 -0.375 0.484375 -0.65625q0.171875 -0.296875 0.21875 -0.546875q0.046875 -0.25 0.046875 -0.515625q0 -0.21875 -0.078125 -0.40625q-0.0625 -0.203125 -0.203125 -0.34375q-0.125 -0.140625 -0.328125 -0.21875q-0.203125 -0.09375 -0.46875 -0.09375q-0.453125 0 -0.84375 0.203125q-0.375 0.1875 -0.71875 0.515625l-0.765625 -0.96875q0.5 -0.46875 1.125 -0.734375q0.625 -0.28125 1.34375 -0.28125q0.5625 0 1.015625 0.140625q0.46875 0.140625 0.796875 0.421875q0.328125 0.28125 0.5 0.703125q0.171875 0.421875 0.171875 0.96875q0 0.453125 -0.125 0.859375q-0.109375 0.390625 -0.34375 0.765625q-0.234375 0.375 -0.578125 0.75q-0.34375 0.375 -0.78125 0.796875l-1.125 1.0625l3.234375 0l0 1.3125l-5.203125 0z" fill-rule="nonzero"/><path fill="#000000" fill-opacity="0.0" d="m231.81364 187.22572l44.661423 0l0 33.921265l-44.661423 0z" fill-rule="evenodd"/><path fill="#00a891" d="m250.23225 205.43323q0 0.625 -0.234375 1.09375q-0.234375 0.453125 -0.65625 0.765625q-0.40625 0.296875 -0.984375 0.453125q-0.578125 0.140625 -1.25 0.140625q-0.609375 0 -1.171875 -0.078125q-0.5625 -0.0625 -1.109375 -0.234375l0 -1.421875q0.265625 0.09375 0.5625 0.171875q0.296875 0.078125 0.578125 0.140625q0.296875 0.0625 0.59375 0.109375q0.296875 0.03125 0.578125 0.03125q0.40625 0 0.6875 -0.0625q0.296875 -0.078125 0.46875 -0.203125q0.1875 -0.125 0.265625 -0.296875q0.078125 -0.171875 0.078125 -0.375q0 -0.28125 -0.15625 -0.46875q-0.15625 -0.1875 -0.421875 -0.328125q-0.265625 -0.15625 -0.609375 -0.265625q-0.328125 -0.125 -0.6875 -0.25q-0.34375 -0.140625 -0.6875 -0.3125q-0.328125 -0.171875 -0.59375 -0.421875q-0.265625 -0.25 -0.421875 -0.59375q-0.15625 -0.359375 -0.15625 -0.84375q0 -0.453125 0.15625 -0.859375q0.171875 -0.40625 0.515625 -0.703125q0.359375 -0.3125 0.90625 -0.484375q0.546875 -0.171875 1.328125 -0.171875q0.234375 0 0.484375 0.015625q0.25 0.015625 0.484375 0.046875q0.25 0.03125 0.46875 0.078125q0.234375 0.046875 0.421875 0.09375l0 1.3125q-0.1875 -0.0625 -0.421875 -0.125q-0.21875 -0.0625 -0.453125 -0.09375q-0.234375 -0.046875 -0.484375 -0.0625q-0.234375 -0.03125 -0.453125 -0.03125q-0.375 0 -0.640625 0.0625q-0.265625 0.0625 -0.4375 0.171875q-0.171875 0.09375 -0.25 0.265625q-0.078125 0.15625 -0.078125 0.34375q0 0.234375 0.15625 0.421875q0.171875 0.171875 0.4375 0.3125q0.265625 0.125 0.59375 0.25q0.34375 0.125 0.703125 0.265625q0.359375 0.125 0.6875 0.3125q0.34375 0.171875 0.609375 0.421875q0.265625 0.25 0.421875 0.59375q0.171875 0.34375 0.171875 0.8125zm4.8632812 2.3125l-1.90625 0l-2.34375 -7.65625l1.640625 0l1.296875 4.609375l0.40625 1.515625l0.4375 -1.609375l1.28125 -4.515625l1.5312347 0l-2.3437347 7.65625zm8.332016 -2.34375q0 0.578125 -0.21875 1.03125q-0.203125 0.453125 -0.640625 0.78125q-0.4375 0.3125 -1.109375 0.484375q-0.65625 0.171875 -1.546875 0.171875q-0.203125 0 -0.421875 -0.015625q-0.21875 -0.015625 -0.4375 -0.03125q-0.21875 0 -0.421875 -0.03125q-0.203125 -0.015625 -0.375 -0.046875l0 -1.25q0.375 0.078125 0.828125 0.125q0.46875 0.046875 0.96875 0.046875q0.484375 0 0.828125 -0.078125q0.359375 -0.09375 0.578125 -0.25q0.234375 -0.15625 0.34375 -0.375q0.109375 -0.234375 0.109375 -0.515625q0 -0.265625 -0.109375 -0.46875q-0.109375 -0.203125 -0.34375 -0.34375q-0.234375 -0.140625 -0.59375 -0.21875q-0.34375 -0.078125 -0.828125 -0.078125l-0.859375 0l0 -1.09375l0.78125 0q0.46875 0 0.765625 -0.09375q0.296875 -0.09375 0.46875 -0.234375q0.1875 -0.15625 0.265625 -0.359375q0.078125 -0.21875 0.078125 -0.4375q0 -0.46875 -0.3125 -0.71875q-0.296875 -0.25 -0.9375 -0.25q-0.453125 0 -0.90625 0.09375q-0.4375 0.09375 -0.921875 0.234375l0 -1.203125q0.265625 -0.078125 0.5 -0.140625q0.25 -0.0625 0.484375 -0.09375q0.25 -0.046875 0.484375 -0.0625q0.25 -0.015625 0.515625 -0.015625q0.640625 0 1.109375 0.140625q0.484375 0.125 0.796875 0.375q0.328125 0.25 0.484375 0.609375q0.171875 0.34375 0.171875 0.796875q0 0.6875 -0.328125 1.125q-0.3125 0.421875 -0.875 0.65625q0.359375 0.0625 0.65625 0.203125q0.3125 0.140625 0.515625 0.375q0.21875 0.21875 0.328125 0.515625q0.125 0.28125 0.125 0.640625z" fill-rule="nonzero"/><path fill="#000000" fill-opacity="0.0" d="m365.90945 308.89502l44.661407 0l0 33.921265l-44.661407 0z" fill-rule="evenodd"/><path fill="#00a891" d="m384.32803 327.1025q0 0.625 -0.234375 1.09375q-0.234375 0.453125 -0.65625 0.765625q-0.40625 0.296875 -0.984375 0.453125q-0.578125 0.140625 -1.25 0.140625q-0.609375 0 -1.171875 -0.078125q-0.5625 -0.0625 -1.109375 -0.234375l0 -1.421875q0.265625 0.09375 0.5625 0.171875q0.296875 0.078125 0.578125 0.140625q0.296875 0.0625 0.59375 0.109375q0.296875 0.03125 0.578125 0.03125q0.40625 0 0.6875 -0.0625q0.296875 -0.078125 0.46875 -0.203125q0.1875 -0.125 0.265625 -0.296875q0.078125 -0.171875 0.078125 -0.375q0 -0.28125 -0.15625 -0.46875q-0.15625 -0.1875 -0.421875 -0.328125q-0.265625 -0.15625 -0.609375 -0.265625q-0.328125 -0.125 -0.6875 -0.25q-0.34375 -0.140625 -0.6875 -0.3125q-0.328125 -0.171875 -0.59375 -0.421875q-0.265625 -0.25 -0.421875 -0.59375q-0.15625 -0.359375 -0.15625 -0.84375q0 -0.453125 0.15625 -0.859375q0.171875 -0.40625 0.515625 -0.703125q0.359375 -0.3125 0.90625 -0.484375q0.546875 -0.171875 1.328125 -0.171875q0.234375 0 0.484375 0.015625q0.25 0.015625 0.484375 0.046875q0.25 0.03125 0.46875 0.078125q0.234375 0.046875 0.421875 0.09375l0 1.3125q-0.1875 -0.0625 -0.421875 -0.125q-0.21875 -0.0625 -0.453125 -0.09375q-0.234375 -0.046875 -0.484375 -0.0625q-0.234375 -0.03125 -0.453125 -0.03125q-0.375 0 -0.640625 0.0625q-0.265625 0.0625 -0.4375 0.171875q-0.171875 0.09375 -0.25 0.265625q-0.078125 0.15625 -0.078125 0.34375q0 0.234375 0.15625 0.421875q0.171875 0.171875 0.4375 0.3125q0.265625 0.125 0.59375 0.25q0.34375 0.125 0.703125 0.265625q0.359375 0.125 0.6875 0.3125q0.34375 0.171875 0.609375 0.421875q0.265625 0.25 0.421875 0.59375q0.171875 0.34375 0.171875 0.8125zm4.8632812 2.3125l-1.90625 0l-2.34375 -7.65625l1.640625 0l1.296875 4.609375l0.40625 1.515625l0.4375 -1.609375l1.28125 -4.515625l1.53125 0l-2.34375 7.65625zm7.5351562 -1.5625l0 1.5625l-1.390625 0l0 -1.5625l-3.5625 0l0 -1.21875l2.984375 -4.875l1.96875 0l0 4.84375l1.15625 0l0 1.25l-1.15625 0zm-1.375 -4.71875l-2.1875 3.46875l2.1875 0l0 -3.46875z" fill-rule="nonzero"/><path fill="#000000" fill-opacity="0.0" d="m5.585302 418.79004l44.66142 0l0 33.921234l-44.66142 0z" fill-rule="evenodd"/><path fill="#00a891" d="m24.0039 436.99753q0 0.625 -0.234375 1.09375q-0.234375 0.453125 -0.65625 0.765625q-0.40625 0.296875 -0.984375 0.453125q-0.578125 0.140625 -1.25 0.140625q-0.609375 0 -1.171875 -0.078125q-0.5625 -0.0625 -1.109375 -0.234375l0 -1.421875q0.265625 0.09375 0.5625 0.171875q0.296875 0.078125 0.578125 0.140625q0.296875 0.0625 0.59375 0.109375q0.296875 0.03125 0.578125 0.03125q0.40625 0 0.6875 -0.0625q0.296875 -0.078125 0.46875 -0.203125q0.1875 -0.125 0.265625 -0.296875q0.078125 -0.171875 0.078125 -0.375q0 -0.28125 -0.15625 -0.46875q-0.15625 -0.1875 -0.421875 -0.328125q-0.265625 -0.15625 -0.609375 -0.265625q-0.328125 -0.125 -0.6875 -0.25q-0.34375 -0.140625 -0.6875 -0.3125q-0.328125 -0.171875 -0.59375 -0.421875q-0.265625 -0.25 -0.421875 -0.59375q-0.15625 -0.359375 -0.15625 -0.84375q0 -0.453125 0.15625 -0.859375q0.171875 -0.40625 0.515625 -0.703125q0.359375 -0.3125 0.90625 -0.484375q0.546875 -0.171875 1.328125 -0.171875q0.234375 0 0.484375 0.015625q0.25 0.015625 0.484375 0.046875q0.25 0.03125 0.46875 0.078125q0.234375 0.046875 0.421875 0.09375l0 1.3125q-0.1875 -0.0625 -0.421875 -0.125q-0.21875 -0.0625 -0.453125 -0.09375q-0.234375 -0.046875 -0.484375 -0.0625q-0.234375 -0.03125 -0.453125 -0.03125q-0.375 0 -0.640625 0.0625q-0.265625 0.0625 -0.4375 0.171875q-0.171875 0.09375 -0.25 0.265625q-0.078125 0.15625 -0.078125 0.34375q0 0.234375 0.15625 0.421875q0.171875 0.171875 0.4375 0.3125q0.265625 0.125 0.59375 0.25q0.34375 0.125 0.703125 0.265625q0.359375 0.125 0.6875 0.3125q0.34375 0.171875 0.609375 0.421875q0.265625 0.25 0.421875 0.59375q0.171875 0.34375 0.171875 0.8125zm4.8632812 2.3125l-1.90625 0l-2.34375 -7.65625l1.640625 0l1.296875 4.609375l0.40625 1.515625l0.4375 -1.609375l1.28125 -4.515625l1.53125 0l-2.34375 7.65625zm8.238279 -2.453125q0 0.625 -0.265625 1.109375q-0.25 0.46875 -0.703125 0.796875q-0.453125 0.328125 -1.078125 0.5q-0.625 0.171875 -1.34375 0.171875q-0.1875 0 -0.390625 -0.015625q-0.203125 -0.015625 -0.421875 -0.03125q-0.203125 -0.015625 -0.40625 -0.046875q-0.203125 -0.03125 -0.359375 -0.0625l0 -1.234375q0.328125 0.078125 0.75 0.125q0.4375 0.046875 0.890625 0.046875q0.890625 0 1.34375 -0.328125q0.453125 -0.34375 0.453125 -0.9375q0 -0.625 -0.421875 -0.921875q-0.421875 -0.3125 -1.375 -0.3125l-1.5 0l0 -4.0625l4.40625 0l0 1.34375l-3.078125 0l0 1.5625l0.546875 0q0.59375 0 1.125 0.109375q0.53125 0.09375 0.9375 0.359375q0.40625 0.265625 0.640625 0.71875q0.25 0.4375 0.25 1.109375z" fill-rule="nonzero"/><path fill="#000000" fill-opacity="0.0" d="m66.19685 376.33072l44.661415 0l0 33.921265l-44.661415 0z" fill-rule="evenodd"/><path fill="#00a891" d="m84.61545 394.5382q0 0.625 -0.234375 1.09375q-0.234375 0.453125 -0.65625 0.765625q-0.40625 0.296875 -0.984375 0.453125q-0.578125 0.140625 -1.25 0.140625q-0.609375 0 -1.171875 -0.078125q-0.5625 -0.0625 -1.109375 -0.234375l0 -1.421875q0.265625 0.09375 0.5625 0.171875q0.296875 0.078125 0.578125 0.140625q0.296875 0.0625 0.59375 0.109375q0.296875 0.03125 0.578125 0.03125q0.40625 0 0.6875 -0.0625q0.296875 -0.078125 0.46875 -0.203125q0.1875 -0.125 0.265625 -0.296875q0.078125 -0.171875 0.078125 -0.375q0 -0.28125 -0.15625 -0.46875q-0.15625 -0.1875 -0.421875 -0.328125q-0.265625 -0.15625 -0.609375 -0.265625q-0.328125 -0.125 -0.6875 -0.25q-0.34375 -0.140625 -0.6875 -0.3125q-0.328125 -0.171875 -0.59375 -0.421875q-0.265625 -0.25 -0.421875 -0.59375q-0.15625 -0.359375 -0.15625 -0.84375q0 -0.453125 0.15625 -0.859375q0.171875 -0.40625 0.515625 -0.703125q0.359375 -0.3125 0.90625 -0.484375q0.546875 -0.171875 1.328125 -0.171875q0.234375 0 0.484375 0.015625q0.25 0.015625 0.484375 0.046875q0.25 0.03125 0.46875 0.078125q0.234375 0.046875 0.421875 0.09375l0 1.3125q-0.1875 -0.0625 -0.421875 -0.125q-0.21875 -0.0625 -0.453125 -0.09375q-0.234375 -0.046875 -0.484375 -0.0625q-0.234375 -0.03125 -0.453125 -0.03125q-0.375 0 -0.640625 0.0625q-0.265625 0.0625 -0.4375 0.171875q-0.171875 0.09375 -0.25 0.265625q-0.078125 0.15625 -0.078125 0.34375q0 0.234375 0.15625 0.421875q0.171875 0.171875 0.4375 0.3125q0.265625 0.125 0.59375 0.25q0.34375 0.125 0.703125 0.265625q0.359375 0.125 0.6875 0.3125q0.34375 0.171875 0.609375 0.421875q0.265625 0.25 0.421875 0.59375q0.171875 0.34375 0.171875 0.8125zm4.8632812 2.3125l-1.90625 0l-2.34375 -7.65625l1.640625 0l1.296875 4.609375l0.40625 1.515625l0.4375 -1.609375l1.28125 -4.515625l1.53125 0l-2.34375 7.65625zm8.488281 -2.421875q0 0.578125 -0.21875 1.046875q-0.203125 0.46875 -0.578125 0.8125q-0.359375 0.328125 -0.875 0.515625q-0.515625 0.1875 -1.140625 0.1875q-1.328125 0 -2.046875 -0.84375q-0.703125 -0.84375 -0.703125 -2.578125q0 -0.640625 0.078125 -1.203125q0.078125 -0.578125 0.25 -1.0625q0.171875 -0.484375 0.46875 -0.875q0.3125 -0.390625 0.765625 -0.65625q0.453125 -0.28125 1.0625 -0.421875q0.625 -0.15625 1.4375 -0.15625l0.875 0l0 1.203125l-1.03125 0q-0.625 0 -1.0625 0.140625q-0.421875 0.125 -0.6875 0.375q-0.265625 0.234375 -0.40625 0.578125q-0.140625 0.34375 -0.171875 0.78125l-0.015625 0.140625q0.296875 -0.15625 0.6875 -0.25q0.390625 -0.09375 0.828125 -0.09375q0.609375 0 1.078125 0.171875q0.46875 0.15625 0.78125 0.46875q0.328125 0.296875 0.46875 0.734375q0.15625 0.421875 0.15625 0.984375zm-1.484375 0.0625q0 -0.265625 -0.078125 -0.484375q-0.0625 -0.234375 -0.21875 -0.390625q-0.140625 -0.171875 -0.375 -0.265625q-0.234375 -0.09375 -0.546875 -0.09375q-0.1875 0 -0.375 0.046875q-0.1875 0.03125 -0.359375 0.078125q-0.171875 0.046875 -0.328125 0.125q-0.15625 0.0625 -0.28125 0.125q0 0.59375 0.078125 1.0q0.09375 0.40625 0.25 0.671875q0.171875 0.25 0.421875 0.375q0.25 0.109375 0.578125 0.109375q0.28125 0 0.5 -0.09375q0.234375 -0.09375 0.390625 -0.265625q0.171875 -0.171875 0.25 -0.40625q0.09375 -0.25 0.09375 -0.53125z" fill-rule="nonzero"/><path fill="#000000" fill-opacity="0.0" d="m485.4042 400.8819l44.661407 0l0 33.921265l-44.661407 0z" fill-rule="evenodd"/><path fill="#00a891" d="m503.82278 419.0894q0 0.625 -0.234375 1.09375q-0.234375 0.453125 -0.65625 0.765625q-0.40625 0.296875 -0.984375 0.453125q-0.578125 0.140625 -1.25 0.140625q-0.609375 0 -1.171875 -0.078125q-0.5625 -0.0625 -1.109375 -0.234375l0 -1.421875q0.265625 0.09375 0.5625 0.171875q0.296875 0.078125 0.578125 0.140625q0.296875 0.0625 0.59375 0.109375q0.296875 0.03125 0.578125 0.03125q0.40625 0 0.6875 -0.0625q0.296875 -0.078125 0.46875 -0.203125q0.1875 -0.125 0.265625 -0.296875q0.078125 -0.171875 0.078125 -0.375q0 -0.28125 -0.15625 -0.46875q-0.15625 -0.1875 -0.421875 -0.328125q-0.265625 -0.15625 -0.609375 -0.265625q-0.328125 -0.125 -0.6875 -0.25q-0.34375 -0.140625 -0.6875 -0.3125q-0.328125 -0.171875 -0.59375 -0.421875q-0.265625 -0.25 -0.421875 -0.59375q-0.15625 -0.359375 -0.15625 -0.84375q0 -0.453125 0.15625 -0.859375q0.171875 -0.40625 0.515625 -0.703125q0.359375 -0.3125 0.90625 -0.484375q0.546875 -0.171875 1.328125 -0.171875q0.234375 0 0.484375 0.015625q0.25 0.015625 0.484375 0.046875q0.25 0.03125 0.46875 0.078125q0.234375 0.046875 0.421875 0.09375l0 1.3125q-0.1875 -0.0625 -0.421875 -0.125q-0.21875 -0.0625 -0.453125 -0.09375q-0.234375 -0.046875 -0.484375 -0.0625q-0.234375 -0.03125 -0.453125 -0.03125q-0.375 0 -0.640625 0.0625q-0.265625 0.0625 -0.4375 0.171875q-0.171875 0.09375 -0.25 0.265625q-0.078125 0.15625 -0.078125 0.34375q0 0.234375 0.15625 0.421875q0.171875 0.171875 0.4375 0.3125q0.265625 0.125 0.59375 0.25q0.34375 0.125 0.703125 0.265625q0.359375 0.125 0.6875 0.3125q0.34375 0.171875 0.609375 0.421875q0.265625 0.25 0.421875 0.59375q0.171875 0.34375 0.171875 0.8125zm4.8632812 2.3125l-1.90625 0l-2.34375 -7.65625l1.640625 0l1.296875 4.609375l0.40625 1.515625l0.4375 -1.609375l1.28125 -4.515625l1.53125 0l-2.34375 7.65625zm5.207062 0l-1.609375 0l3.046875 -6.28125l-3.6719055 0l0 -1.375l5.3125305 0l0 1.25l-3.078125 6.40625z" fill-rule="nonzero"/><path fill="#000000" fill-opacity="0.0" d="m160.05774 478.63254l44.661423 0l0 33.921295l-44.661423 0z" fill-rule="evenodd"/><path fill="#00a891" d="m178.47633 496.84006q0 0.625 -0.234375 1.09375q-0.234375 0.453125 -0.65625 0.765625q-0.40625 0.296875 -0.984375 0.453125q-0.57810974 0.140625 -1.2499847 0.140625q-0.609375 0 -1.171875 -0.078125q-0.5625 -0.0625 -1.109375 -0.234375l0 -1.421875q0.265625 0.09375 0.5625 0.171875q0.296875 0.078125 0.578125 0.140625q0.296875 0.0625 0.59375 0.109375q0.296875 0.03125 0.578125 0.03125q0.40625 0 0.68748474 -0.0625q0.296875 -0.078125 0.46875 -0.203125q0.1875 -0.125 0.265625 -0.296875q0.078125 -0.171875 0.078125 -0.375q0 -0.28125 -0.15625 -0.46875q-0.15625 -0.1875 -0.421875 -0.328125q-0.26560974 -0.15625 -0.60935974 -0.265625q-0.328125 -0.125 -0.6875 -0.25q-0.34375 -0.140625 -0.6875 -0.3125q-0.328125 -0.171875 -0.59375 -0.421875q-0.265625 -0.25 -0.421875 -0.59375q-0.15625 -0.359375 -0.15625 -0.84375q0 -0.453125 0.15625 -0.859375q0.171875 -0.40625 0.515625 -0.703125q0.359375 -0.3125 0.90625 -0.484375q0.546875 -0.171875 1.328125 -0.171875q0.23435974 0 0.48435974 0.015625q0.25 0.015625 0.484375 0.046875q0.25 0.03125 0.46875 0.078125q0.234375 0.046875 0.421875 0.09375l0 1.3125q-0.1875 -0.0625 -0.421875 -0.125q-0.21875 -0.0625 -0.453125 -0.09375q-0.234375 -0.046875 -0.484375 -0.0625q-0.234375 -0.03125 -0.453125 -0.03125q-0.37498474 0 -0.64060974 0.0625q-0.265625 0.0625 -0.4375 0.171875q-0.171875 0.09375 -0.25 0.265625q-0.078125 0.15625 -0.078125 0.34375q0 0.234375 0.15625 0.421875q0.171875 0.171875 0.4375 0.3125q0.265625 0.125 0.59375 0.25q0.34373474 0.125 0.70310974 0.265625q0.359375 0.125 0.6875 0.3125q0.34375 0.171875 0.609375 0.421875q0.265625 0.25 0.421875 0.59375q0.171875 0.34375 0.171875 0.8125zm4.8632812 2.3125l-1.90625 0l-2.34375 -7.65625l1.640625 0l1.296875 4.609375l0.40625 1.515625l0.4375 -1.609375l1.28125 -4.515625l1.53125 0l-2.34375 7.65625zm6.9257812 -4.0625q0.28125 0.171875 0.53125 0.359375q0.265625 0.1875 0.453125 0.4375q0.203125 0.25 0.3125 0.5625q0.125 0.3125 0.125 0.703125q0 0.53125 -0.21875 0.9375q-0.203125 0.390625 -0.578125 0.65625q-0.375 0.265625 -0.875 0.40625q-0.5 0.140625 -1.078125 0.140625q-0.640625 0 -1.140625 -0.140625q-0.484375 -0.140625 -0.828125 -0.390625q-0.34375 -0.25 -0.515625 -0.609375q-0.171875 -0.359375 -0.171875 -0.796875q0 -0.390625 0.109375 -0.703125q0.125 -0.3125 0.3125 -0.5625q0.203125 -0.25 0.46875 -0.4375q0.265625 -0.203125 0.5625 -0.375q-0.265625 -0.15625 -0.5 -0.328125q-0.234375 -0.1875 -0.40625 -0.421875q-0.171875 -0.234375 -0.28125 -0.515625q-0.109375 -0.28125 -0.109375 -0.625q0 -0.421875 0.15625 -0.78125q0.171875 -0.375 0.484375 -0.640625q0.328125 -0.28125 0.8125 -0.4375q0.484375 -0.15625 1.125 -0.15625q0.609375 0 1.078125 0.125q0.46875 0.125 0.78125 0.359375q0.328125 0.234375 0.484375 0.5625q0.171875 0.3125 0.171875 0.703125q0 0.375 -0.109375 0.671875q-0.09375 0.28125 -0.265625 0.53125q-0.171875 0.234375 -0.40625 0.421875q-0.234375 0.1875 -0.484375 0.34375zm-1.125 -0.546875q0.203125 -0.109375 0.390625 -0.234375q0.1875 -0.140625 0.3125 -0.296875q0.140625 -0.15625 0.21875 -0.34375q0.078125 -0.1875 0.078125 -0.421875q0 -0.375 -0.296875 -0.578125q-0.296875 -0.203125 -0.859375 -0.203125q-0.546875 0 -0.84375 0.203125q-0.296875 0.203125 -0.296875 0.625q0 0.21875 0.09375 0.390625q0.09375 0.171875 0.265625 0.328125q0.1875 0.140625 0.421875 0.28125q0.234375 0.125 0.515625 0.25zm-0.3125 1.296875q-0.21875 0.125 -0.421875 0.265625q-0.203125 0.140625 -0.359375 0.3125q-0.140625 0.171875 -0.234375 0.375q-0.078125 0.203125 -0.078125 0.453125q0 0.4375 0.34375 0.671875q0.34375 0.234375 0.90625 0.234375q0.265625 0 0.484375 -0.046875q0.234375 -0.0625 0.40625 -0.171875q0.171875 -0.109375 0.265625 -0.28125q0.109375 -0.171875 0.109375 -0.40625q0 -0.25 -0.109375 -0.4375q-0.109375 -0.203125 -0.3125 -0.359375q-0.1875 -0.171875 -0.453125 -0.3125q-0.25 -0.15625 -0.546875 -0.296875z" fill-rule="nonzero"/><path fill="#000000" fill-opacity="0.0" d="m300.41995 477.99606l44.661407 0l0 33.921265l-44.661407 0z" fill-rule="evenodd"/><path fill="#00a891" d="m318.83853 496.20355q0 0.625 -0.234375 1.09375q-0.234375 0.453125 -0.65625 0.765625q-0.40625 0.296875 -0.984375 0.453125q-0.578125 0.140625 -1.25 0.140625q-0.609375 0 -1.171875 -0.078125q-0.5625 -0.0625 -1.109375 -0.234375l0 -1.421875q0.265625 0.09375 0.5625 0.171875q0.296875 0.078125 0.578125 0.140625q0.296875 0.0625 0.59375 0.109375q0.296875 0.03125 0.578125 0.03125q0.40625 0 0.6875 -0.0625q0.296875 -0.078125 0.46875 -0.203125q0.1875 -0.125 0.265625 -0.296875q0.078125 -0.171875 0.078125 -0.375q0 -0.28125 -0.15625 -0.46875q-0.15625 -0.1875 -0.421875 -0.328125q-0.265625 -0.15625 -0.609375 -0.265625q-0.328125 -0.125 -0.6875 -0.25q-0.34375 -0.140625 -0.6875 -0.3125q-0.328125 -0.171875 -0.59375 -0.421875q-0.265625 -0.25 -0.421875 -0.59375q-0.15625 -0.359375 -0.15625 -0.84375q0 -0.453125 0.15625 -0.859375q0.171875 -0.40625 0.515625 -0.703125q0.359375 -0.3125 0.90625 -0.484375q0.546875 -0.171875 1.328125 -0.171875q0.234375 0 0.484375 0.015625q0.25 0.015625 0.484375 0.046875q0.25 0.03125 0.46875 0.078125q0.234375 0.046875 0.421875 0.09375l0 1.3125q-0.1875 -0.0625 -0.421875 -0.125q-0.21875 -0.0625 -0.453125 -0.09375q-0.234375 -0.046875 -0.484375 -0.0625q-0.234375 -0.03125 -0.453125 -0.03125q-0.375 0 -0.640625 0.0625q-0.265625 0.0625 -0.4375 0.171875q-0.171875 0.09375 -0.25 0.265625q-0.078125 0.15625 -0.078125 0.34375q0 0.234375 0.15625 0.421875q0.171875 0.171875 0.4375 0.3125q0.265625 0.125 0.59375 0.25q0.34375 0.125 0.703125 0.265625q0.359375 0.125 0.6875 0.3125q0.34375 0.171875 0.609375 0.421875q0.265625 0.25 0.421875 0.59375q0.171875 0.34375 0.171875 0.8125zm4.8632812 2.3125l-1.90625 0l-2.34375 -7.65625l1.640625 0l1.296875 4.609375l0.40625 1.515625l0.4375 -1.609375l1.28125 -4.515625l1.53125 0l-2.34375 7.65625zm8.332031 -4.28125q0 0.90625 -0.15625 1.578125q-0.140625 0.65625 -0.421875 1.140625q-0.28125 0.46875 -0.671875 0.78125q-0.375 0.296875 -0.859375 0.484375q-0.46875 0.171875 -1.0 0.234375q-0.53125 0.0625 -1.109375 0.0625l-0.890625 0l0 -1.21875l1.046875 0q0.6875 0 1.140625 -0.125q0.46875 -0.125 0.75 -0.34375q0.28125 -0.234375 0.421875 -0.578125q0.140625 -0.359375 0.1875 -0.8125l0.015625 -0.140625q-0.3125 0.140625 -0.71875 0.234375q-0.390625 0.09375 -0.796875 0.09375q-0.5625 0 -1.015625 -0.125q-0.453125 -0.125 -0.796875 -0.40625q-0.328125 -0.28125 -0.515625 -0.71875q-0.171875 -0.453125 -0.171875 -1.09375q0 -0.578125 0.203125 -1.046875q0.21875 -0.46875 0.578125 -0.796875q0.375 -0.34375 0.890625 -0.515625q0.515625 -0.1875 1.125 -0.1875q0.59375 0 1.09375 0.171875q0.515625 0.15625 0.890625 0.5625q0.375 0.40625 0.578125 1.09375q0.203125 0.671875 0.203125 1.671875zm-2.84375 -2.3125q-0.28125 0 -0.515625 0.09375q-0.21875 0.09375 -0.375 0.265625q-0.15625 0.171875 -0.25 0.421875q-0.09375 0.234375 -0.09375 0.515625q0 0.625 0.328125 0.9375q0.328125 0.296875 0.90625 0.296875q0.171875 0 0.34375 -0.03125q0.171875 -0.03125 0.34375 -0.078125q0.1875 -0.0625 0.34375 -0.125q0.171875 -0.0625 0.296875 -0.140625q0 -0.53125 -0.078125 -0.921875q-0.0625 -0.40625 -0.21875 -0.671875q-0.15625 -0.28125 -0.40625 -0.421875q-0.25 -0.140625 -0.625 -0.140625z" fill-rule="nonzero"/><path fill="#000000" fill-opacity="0.0" d="m145.59055 627.7349l44.661423 0l0 33.921265l-44.661423 0z" fill-rule="evenodd"/><path fill="#00a891" d="m164.13416 643.03613q0 0.59375 -0.203125 1.109375q-0.203125 0.5 -0.59375 0.875q-0.390625 0.359375 -0.984375 0.5625q-0.578125 0.203125 -1.34375 0.203125l-0.734375 0l0 2.46875l-1.453125 0l0 -7.65625l2.234375 0q0.75 0 1.3125 0.15625q0.578125 0.15625 0.96875 0.46875q0.390625 0.3125 0.59375 0.765625q0.203125 0.453125 0.203125 1.046875zm-1.515625 0.09375q0 -0.296875 -0.09375 -0.546875q-0.09375 -0.25 -0.296875 -0.421875q-0.1875 -0.1875 -0.5 -0.28125q-0.296875 -0.09375 -0.703125 -0.09375l-0.75 0l0 2.8125l0.796875 0q0.375 0 0.65625 -0.09375q0.296875 -0.109375 0.484375 -0.296875q0.203125 -0.203125 0.296875 -0.46875q0.109375 -0.265625 0.109375 -0.609375zm6.0351562 -1.328125l0 6.453125l-1.46875 0l0 -6.453125l-2.09375 0l0 -1.203125l5.671875 0l0 1.203125l-2.109375 0zm7.7539062 4.890625l0 1.5625l-1.390625 0l0 -1.5625l-3.5625 0l0 -1.21875l2.984375 -4.875l1.96875 0l0 4.84375l1.15625 0l0 1.25l-1.15625 0zm-1.375 -4.71875l-2.1875 3.46875l2.1875 0l0 -3.46875z" fill-rule="nonzero"/><path fill="#000000" fill-opacity="0.0" d="m96.03674 262.45538l44.661423 0l0 33.921265l-44.661423 0z" fill-rule="evenodd"/><path fill="#00a891" d="m114.580345 277.75662q0 0.59375 -0.203125 1.109375q-0.203125 0.5 -0.59375 0.875q-0.390625 0.359375 -0.984375 0.5625q-0.578125 0.203125 -1.34375 0.203125l-0.734375 0l0 2.46875l-1.453125 0l0 -7.65625l2.234375 0q0.75 0 1.3125 0.15625q0.578125 0.15625 0.96875 0.46875q0.390625 0.3125 0.59375 0.765625q0.203125 0.453125 0.203125 1.046875zm-1.515625 0.09375q0 -0.296875 -0.09375 -0.546875q-0.09375 -0.25 -0.296875 -0.421875q-0.1875 -0.1875 -0.5 -0.28125q-0.296875 -0.09375 -0.703125 -0.09375l-0.75 0l0 2.8125l0.796875 0q0.375 0 0.65625 -0.09375q0.296875 -0.109375 0.484375 -0.296875q0.203125 -0.203125 0.296875 -0.46875q0.109375 -0.265625 0.109375 -0.609375zm6.0351562 -1.328125l0 6.453125l-1.46875 0l0 -6.453125l-2.09375 0l0 -1.203125l5.671875 0l0 1.203125l-2.109375 0zm3.3164062 6.453125l0 -1.0625l1.8125 -1.796875q0.515625 -0.515625 0.8125 -0.875q0.3125 -0.375 0.484375 -0.65625q0.171875 -0.296875 0.21875 -0.546875q0.046875 -0.25 0.046875 -0.515625q0 -0.21875 -0.078125 -0.40625q-0.0625 -0.203125 -0.203125 -0.34375q-0.125 -0.140625 -0.328125 -0.21875q-0.203125 -0.09375 -0.46875 -0.09375q-0.453125 0 -0.84375 0.203125q-0.375 0.1875 -0.71875 0.515625l-0.765625 -0.96875q0.5 -0.46875 1.125 -0.734375q0.625 -0.28125 1.34375 -0.28125q0.5625 0 1.015625 0.140625q0.46875 0.140625 0.796875 0.421875q0.328125 0.28125 0.5 0.703125q0.171875 0.421875 0.171875 0.96875q0 0.453125 -0.125 0.859375q-0.109375 0.390625 -0.34375 0.765625q-0.234375 0.375 -0.578125 0.75q-0.34375 0.375 -0.78125 0.796875l-1.125 1.0625l3.234375 0l0 1.3125l-5.203125 0z" fill-rule="nonzero"/><path fill="#000000" fill-opacity="0.0" d="m366.22046 257.37534l44.661438 0l0 33.921265l-44.661438 0z" fill-rule="evenodd"/><path fill="#00a891" d="m384.76407 272.67657q0 0.59375 -0.203125 1.109375q-0.203125 0.5 -0.59375 0.875q-0.390625 0.359375 -0.984375 0.5625q-0.578125 0.203125 -1.34375 0.203125l-0.734375 0l0 2.46875l-1.453125 0l0 -7.65625l2.234375 0q0.75 0 1.3125 0.15625q0.578125 0.15625 0.96875 0.46875q0.390625 0.3125 0.59375 0.765625q0.203125 0.453125 0.203125 1.046875zm-1.515625 0.09375q0 -0.296875 -0.09375 -0.546875q-0.09375 -0.25 -0.296875 -0.421875q-0.1875 -0.1875 -0.5 -0.28125q-0.296875 -0.09375 -0.703125 -0.09375l-0.75 0l0 2.8125l0.796875 0q0.375 0 0.65625 -0.09375q0.296875 -0.109375 0.484375 -0.296875q0.203125 -0.203125 0.296875 -0.46875q0.109375 -0.265625 0.109375 -0.609375zm6.0351562 -1.328125l0 6.453125l-1.46875 0l0 -6.453125l-2.09375 0l0 -1.203125l5.671875 0l0 1.203125l-2.109375 0zm8.550781 4.109375q0 0.578125 -0.21875 1.03125q-0.203125 0.453125 -0.640625 0.78125q-0.4375 0.3125 -1.109375 0.484375q-0.65625 0.171875 -1.546875 0.171875q-0.203125 0 -0.421875 -0.015625q-0.21875 -0.015625 -0.4375 -0.03125q-0.21875 0 -0.421875 -0.03125q-0.203125 -0.015625 -0.375 -0.046875l0 -1.25q0.375 0.078125 0.828125 0.125q0.46875 0.046875 0.96875 0.046875q0.484375 0 0.828125 -0.078125q0.359375 -0.09375 0.578125 -0.25q0.234375 -0.15625 0.34375 -0.375q0.109375 -0.234375 0.109375 -0.515625q0 -0.265625 -0.109375 -0.46875q-0.109375 -0.203125 -0.34375 -0.34375q-0.234375 -0.140625 -0.59375 -0.21875q-0.34375 -0.078125 -0.828125 -0.078125l-0.859375 0l0 -1.09375l0.78125 0q0.46875 0 0.765625 -0.09375q0.296875 -0.09375 0.46875 -0.234375q0.1875 -0.15625 0.265625 -0.359375q0.078125 -0.21875 0.078125 -0.4375q0 -0.46875 -0.3125 -0.71875q-0.296875 -0.25 -0.9375 -0.25q-0.453125 0 -0.90625 0.09375q-0.4375 0.09375 -0.921875 0.234375l0 -1.203125q0.265625 -0.078125 0.5 -0.140625q0.25 -0.0625 0.484375 -0.09375q0.25 -0.046875 0.484375 -0.0625q0.25 -0.015625 0.515625 -0.015625q0.640625 0 1.109375 0.140625q0.484375 0.125 0.796875 0.375q0.328125 0.25 0.484375 0.609375q0.171875 0.34375 0.171875 0.796875q0 0.6875 -0.328125 1.125q-0.3125 0.421875 -0.875 0.65625q0.359375 0.0625 0.65625 0.203125q0.3125 0.140625 0.515625 0.375q0.21875 0.21875 0.328125 0.515625q0.125 0.28125 0.125 0.640625z" fill-rule="nonzero"/><path fill="#000000" fill-opacity="0.0" d="m304.7979 112.17979l44.661407 0l0 33.921257l-44.661407 0z" fill-rule="evenodd"/><path fill="#00a891" d="m323.3415 127.48104q0 0.5937424 -0.203125 1.1093674q-0.203125 0.5 -0.59375 0.875q-0.390625 0.359375 -0.984375 0.5625q-0.578125 0.203125 -1.34375 0.203125l-0.734375 0l0 2.46875l-1.453125 0l0 -7.6562424l2.234375 0q0.75 0 1.3125 0.15625q0.578125 0.15625 0.96875 0.46875q0.390625 0.3125 0.59375 0.765625q0.203125 0.453125 0.203125 1.046875zm-1.515625 0.09375q0 -0.296875 -0.09375 -0.546875q-0.09375 -0.25 -0.296875 -0.421875q-0.1875 -0.1875 -0.5 -0.28125q-0.296875 -0.09375 -0.703125 -0.09375l-0.75 0l0 2.8124924l0.796875 0q0.375 0 0.65625 -0.09375q0.296875 -0.109375 0.484375 -0.296875q0.203125 -0.203125 0.296875 -0.46875q0.109375 -0.26561737 0.109375 -0.6093674zm6.0351562 -1.328125l0 6.4531174l-1.46875 0l0 -6.4531174l-2.09375 0l0 -1.203125l5.671875 0l0 1.203125l-2.109375 0zm3.4570312 6.4531174l0 -1.265625l1.953125 0l0 -4.9218674l-1.703125 0.9375l-0.46875 -1.171875l2.4375 -1.28125l1.203125 0l0 6.4374924l1.671875 0l0 1.265625l-5.09375 0z" fill-rule="nonzero"/><path fill="#000000" fill-opacity="0.0" d="m231.81364 20.53412l44.661423 0l0 33.921257l-44.661423 0z" fill-rule="evenodd"/><path fill="#0000ff" d="m256.9549 35.835373q0 0.59375 -0.203125 1.109375q-0.203125 0.5 -0.59375 0.875q-0.39060974 0.359375 -0.98435974 0.5625q-0.578125 0.203125 -1.34375 0.203125l-0.734375 0l0 2.46875l-1.453125 0l0 -7.65625l2.234375 0q0.75 0 1.3125 0.15625q0.578125 0.15625 0.96873474 0.46875q0.390625 0.3125 0.59375 0.765625q0.203125 0.453125 0.203125 1.046875zm-1.5156097 0.09375q0 -0.296875 -0.09375 -0.546875q-0.09375 -0.25 -0.296875 -0.421875q-0.1875 -0.1875 -0.5 -0.28125q-0.296875 -0.09375 -0.703125 -0.09375l-0.75 0l0 2.8125l0.796875 0q0.375 0 0.65625 -0.09375q0.296875 -0.109375 0.484375 -0.296875q0.203125 -0.203125 0.296875 -0.46875q0.109375 -0.265625 0.109375 -0.609375z" fill-rule="nonzero"/><path fill="#000000" fill-opacity="0.0" d="m300.41995 352.6168l44.661407 0l0 33.921265l-44.661407 0z" fill-rule="evenodd"/><path fill="#0000ff" d="m325.8268 369.27744q0 1.046875 -0.25 1.796875q-0.234375 0.75 -0.65625 1.25q-0.421875 0.484375 -1.0 0.71875q-0.5625 0.234375 -1.21875 0.234375q-1.515625 0 -2.28125 -1.0q-0.75 -1.015625 -0.75 -2.9375q0 -1.03125 0.234375 -1.78125q0.25 -0.765625 0.671875 -1.25q0.421875 -0.484375 1.0 -0.71875q0.578125 -0.234375 1.21875 -0.234375q1.515625 0 2.265625 1.0q0.765625 1.0 0.765625 2.921875zm-1.515625 0.0625q0 -1.359375 -0.375 -2.015625q-0.359375 -0.671875 -1.1875 -0.671875q-0.40625 0 -0.703125 0.171875q-0.296875 0.171875 -0.484375 0.515625q-0.1875 0.328125 -0.28125 0.8125q-0.09375 0.484375 -0.09375 1.125q0 1.359375 0.359375 2.03125q0.375 0.65625 1.203125 0.65625q0.421875 0 0.71875 -0.171875q0.296875 -0.171875 0.484375 -0.5q0.1875 -0.34375 0.265625 -0.828125q0.09375 -0.484375 0.09375 -1.125z" fill-rule="nonzero"/><path fill="#000000" fill-opacity="0.0" d="m160.66142 351.20078l44.661407 0l0 33.921265l-44.661407 0z" fill-rule="evenodd"/><path fill="#0000ff" d="m182.24017 365.2833l0 2.125l2.890625 0l0 1.171875l-2.890625 0l0 3.140625l-1.46875 0l0 -7.65625l4.53125 0l0 1.21875l-3.0625 0z" fill-rule="nonzero"/><path fill="#000000" fill-opacity="0.0" d="m306.43756 345.71158l0 0c0 -3.1108398 2.5218506 -5.63266 5.63266 -5.63266l22.529968 0l0 0c1.493866 0 2.9265747 0.5934448 3.9828796 1.6497803c1.0563354 1.0563354 1.6497803 2.4890137 1.6497803 3.9828796l0 47.726807c0 3.1108398 -2.52182 5.63266 -5.63266 5.63266l-22.529968 0c-3.1108093 0 -5.63266 -2.52182 -5.63266 -5.63266z" fill-rule="evenodd"/><path stroke="#0000ff" stroke-width="2.0" stroke-linejoin="round" stroke-linecap="butt" d="m306.43756 345.71158l0 0c0 -3.1108398 2.5218506 -5.63266 5.63266 -5.63266l22.529968 0l0 0c1.493866 0 2.9265747 0.5934448 3.9828796 1.6497803c1.0563354 1.0563354 1.6497803 2.4890137 1.6497803 3.9828796l0 47.726807c0 3.1108398 -2.52182 5.63266 -5.63266 5.63266l-22.529968 0c-3.1108093 0 -5.63266 -2.52182 -5.63266 -5.63266z" fill-rule="evenodd"/><path fill="#000000" fill-opacity="0.0" d="m166.08456 345.71158l0 0c0 -3.1108398 2.52182 -5.63266 5.6326447 -5.63266l22.529968 0l0 0c1.493866 0 2.9265594 0.5934448 3.982895 1.6497803c1.0563202 1.0563354 1.649765 2.4890137 1.649765 3.9828796l0 47.726807c0 3.1108398 -2.5218353 5.63266 -5.63266 5.63266l-22.529968 0c-3.1108246 0 -5.6326447 -2.52182 -5.6326447 -5.63266z" fill-rule="evenodd"/><path stroke="#0000ff" stroke-width="2.0" stroke-linejoin="round" stroke-linecap="butt" d="m166.08456 345.71158l0 0c0 -3.1108398 2.52182 -5.63266 5.6326447 -5.63266l22.529968 0l0 0c1.493866 0 2.9265594 0.5934448 3.982895 1.6497803c1.0563202 1.0563354 1.649765 2.4890137 1.649765 3.9828796l0 47.726807c0 3.1108398 -2.5218353 5.63266 -5.63266 5.63266l-22.529968 0c-3.1108246 0 -5.6326447 -2.52182 -5.6326447 -5.63266z" fill-rule="evenodd"/><path fill="#000000" fill-opacity="0.0" d="m237.23785 13.633969l0 0c0 -3.1108313 2.5218353 -5.632659 5.63266 -5.632659l22.529968 0l0 0c1.493866 0 2.9265442 0.5934391 3.9828796 1.6497679c1.0563354 1.0563288 1.6497803 2.4890175 1.6497803 3.982891l0 47.72681c0 3.1108322 -2.52182 5.63266 -5.63266 5.63266l-22.529968 0c-3.1108246 0 -5.63266 -2.5218277 -5.63266 -5.63266z" fill-rule="evenodd"/><path stroke="#0000ff" stroke-width="2.0" stroke-linejoin="round" stroke-linecap="butt" d="m237.23785 13.633969l0 0c0 -3.1108313 2.5218353 -5.632659 5.63266 -5.632659l22.529968 0l0 0c1.493866 0 2.9265442 0.5934391 3.9828796 1.6497679c1.0563354 1.0563288 1.6497803 2.4890175 1.6497803 3.982891l0 47.72681c0 3.1108322 -2.52182 5.63266 -5.63266 5.63266l-22.529968 0c-3.1108246 0 -5.63266 -2.5218277 -5.63266 -5.63266z" fill-rule="evenodd"/></g></svg>